G04 #@! TF.GenerationSoftware,KiCad,Pcbnew,9.0.7*
G04 #@! TF.CreationDate,2026-04-12T15:48:31+03:00*
G04 #@! TF.ProjectId,nanosun-pcb,6e616e6f-7375-46e2-9d70-63622e6b6963,v1*
G04 #@! TF.SameCoordinates,Original*
G04 #@! TF.FileFunction,Paste,Top*
G04 #@! TF.FilePolarity,Positive*
%FSLAX46Y46*%
G04 Gerber Fmt 4.6, Leading zero omitted, Abs format (unit mm)*
G04 Created by KiCad (PCBNEW 9.0.7) date 2026-04-12 15:48:31*
%MOMM*%
%LPD*%
G01*
G04 APERTURE LIST*
%ADD10R,3.500000X1.200000*%
G04 APERTURE END LIST*
D10*
X129500000Y-173294670D03*
X90500000Y-173294670D03*
X129500000Y-171844670D03*
X90500000Y-171844670D03*
X129500000Y-170394670D03*
X90500000Y-170394670D03*
X148250000Y-35794670D03*
X71750000Y-35794670D03*
X148250000Y-34344670D03*
X71750000Y-34344670D03*
X148250000Y-32894670D03*
X71750000Y-32894670D03*
X53000000Y-51644670D03*
X167000000Y-51644670D03*
X53000000Y-53094670D03*
X167000000Y-53094670D03*
X53000000Y-54544670D03*
X167000000Y-54544670D03*
X179500000Y-123294670D03*
X40500000Y-123294670D03*
X179500000Y-121844670D03*
X40500000Y-121844670D03*
X179500000Y-120394670D03*
X40500000Y-120394670D03*
X90500000Y-26644670D03*
X129500000Y-26644670D03*
X90500000Y-28094670D03*
X129500000Y-28094670D03*
X90500000Y-29544670D03*
X129500000Y-29544670D03*
X160750000Y-48294670D03*
X59250000Y-48294670D03*
X160750000Y-46844670D03*
X59250000Y-46844670D03*
X160750000Y-45394670D03*
X59250000Y-45394670D03*
X46750000Y-139144670D03*
X173250000Y-139144670D03*
X46750000Y-140594670D03*
X173250000Y-140594670D03*
X46750000Y-142044670D03*
X173250000Y-142044670D03*
X34250000Y-114144670D03*
X185750000Y-114144670D03*
X34250000Y-115594670D03*
X185750000Y-115594670D03*
X34250000Y-117044670D03*
X185750000Y-117044670D03*
X40500000Y-64144670D03*
X179500000Y-64144670D03*
X40500000Y-65594670D03*
X179500000Y-65594670D03*
X40500000Y-67044670D03*
X179500000Y-67044670D03*
X185750000Y-98294670D03*
X34250000Y-98294670D03*
X185750000Y-96844670D03*
X34250000Y-96844670D03*
X185750000Y-95394670D03*
X34250000Y-95394670D03*
X65500000Y-39144670D03*
X154500000Y-39144670D03*
X65500000Y-40594670D03*
X154500000Y-40594670D03*
X65500000Y-42044670D03*
X154500000Y-42044670D03*
X34250000Y-89144670D03*
X185750000Y-89144670D03*
X34250000Y-90594670D03*
X185750000Y-90594670D03*
X34250000Y-92044670D03*
X185750000Y-92044670D03*
X154500000Y-160794670D03*
X65500000Y-160794670D03*
X154500000Y-159344670D03*
X65500000Y-159344670D03*
X154500000Y-157894670D03*
X65500000Y-157894670D03*
X179500000Y-73294670D03*
X40500000Y-73294670D03*
X179500000Y-71844670D03*
X40500000Y-71844670D03*
X179500000Y-70394670D03*
X40500000Y-70394670D03*
X34250000Y-101644670D03*
X185750000Y-101644670D03*
X34250000Y-103094670D03*
X185750000Y-103094670D03*
X34250000Y-104544670D03*
X185750000Y-104544670D03*
X40500000Y-76644670D03*
X179500000Y-76644670D03*
X40500000Y-78094670D03*
X179500000Y-78094670D03*
X40500000Y-79544670D03*
X179500000Y-79544670D03*
X59250000Y-151644670D03*
X160750000Y-151644670D03*
X59250000Y-153094670D03*
X160750000Y-153094670D03*
X59250000Y-154544670D03*
X160750000Y-154544670D03*
X179500000Y-135794670D03*
X40500000Y-135794670D03*
X179500000Y-134344670D03*
X40500000Y-134344670D03*
X179500000Y-132894670D03*
X40500000Y-132894670D03*
X185750000Y-110794670D03*
X34250000Y-110794670D03*
X185750000Y-109344670D03*
X34250000Y-109344670D03*
X185750000Y-107894670D03*
X34250000Y-107894670D03*
X185750000Y-85794670D03*
X34250000Y-85794670D03*
X185750000Y-84344670D03*
X34250000Y-84344670D03*
X185750000Y-82894670D03*
X34250000Y-82894670D03*
X167000000Y-148294670D03*
X53000000Y-148294670D03*
X167000000Y-146844670D03*
X53000000Y-146844670D03*
X167000000Y-145394670D03*
X53000000Y-145394670D03*
X40500000Y-126644670D03*
X179500000Y-126644670D03*
X40500000Y-128094670D03*
X179500000Y-128094670D03*
X40500000Y-129544670D03*
X179500000Y-129544670D03*
X173250000Y-60794670D03*
X46750000Y-60794670D03*
X173250000Y-59344670D03*
X46750000Y-59344670D03*
X173250000Y-57894670D03*
X46750000Y-57894670D03*
X71750000Y-164144670D03*
X148250000Y-164144670D03*
X71750000Y-165594670D03*
X148250000Y-165594670D03*
X71750000Y-167044670D03*
X148250000Y-167044670D03*
M02*
