%TF.GenerationSoftware,KiCad,Pcbnew,9.0.7*%
%TF.CreationDate,2026-04-12T15:48:32+03:00*%
%TF.ProjectId,nanosun-pcb,6e616e6f-7375-46e2-9d70-63622e6b6963,v1*%
%TF.SameCoordinates,Original*%
%TF.FileFunction,Drillmap*%
%TF.FilePolarity,Positive*%
%FSLAX45Y45*%
G04 Gerber Fmt 4.5, Leading zero omitted, Abs format (unit mm)*
G04 Created by KiCad (PCBNEW 9.0.7) date 2026-04-12 15:48:32*
%MOMM*%
%LPD*%
G01*
G04 APERTURE LIST*
%ADD10C,0.100000*%
%ADD11C,0.200000*%
%ADD12C,0.250000*%
%ADD13C,0.320000*%
G04 APERTURE END LIST*
D10*
X19250000Y-9996967D02*
G75*
G02*
X2750000Y-9996967I-8250000J0D01*
G01*
X2750000Y-9996967D02*
G75*
G02*
X19250000Y-9996967I8250000J0D01*
G01*
D11*
D10*
X10452000Y-3081967D02*
X10532000Y-3161967D01*
X10532000Y-3081967D02*
X10452000Y-3161967D01*
X10760265Y-4956967D02*
X10840265Y-5036967D01*
X10840265Y-4956967D02*
X10760265Y-5036967D01*
X10760265Y-14956967D02*
X10840265Y-15036967D01*
X10840265Y-14956967D02*
X10760265Y-15036967D01*
X11140265Y-4956967D02*
X11220265Y-5036967D01*
X11220265Y-4956967D02*
X11140265Y-5036967D01*
X11140265Y-14956967D02*
X11220265Y-15036967D01*
X11220265Y-14956967D02*
X11140265Y-15036967D01*
X11468000Y-3081967D02*
X11548000Y-3161967D01*
X11548000Y-3081967D02*
X11468000Y-3161967D01*
D12*
X6975000Y-7096967D02*
G75*
G02*
X6725000Y-7096967I-125000J0D01*
G01*
X6725000Y-7096967D02*
G75*
G02*
X6975000Y-7096967I125000J0D01*
G01*
X6975000Y-12896967D02*
G75*
G02*
X6725000Y-12896967I-125000J0D01*
G01*
X6725000Y-12896967D02*
G75*
G02*
X6975000Y-12896967I125000J0D01*
G01*
X9275000Y-7096967D02*
G75*
G02*
X9025000Y-7096967I-125000J0D01*
G01*
X9025000Y-7096967D02*
G75*
G02*
X9275000Y-7096967I125000J0D01*
G01*
X9275000Y-12896967D02*
G75*
G02*
X9025000Y-12896967I-125000J0D01*
G01*
X9025000Y-12896967D02*
G75*
G02*
X9275000Y-12896967I125000J0D01*
G01*
D13*
X5900000Y-3836967D02*
X5900000Y-4156967D01*
X5740000Y-3996967D02*
X6060000Y-3996967D01*
X5900000Y-15836967D02*
X5900000Y-16156967D01*
X5740000Y-15996967D02*
X6060000Y-15996967D01*
X11000000Y-2086967D02*
X11000000Y-2406967D01*
X10840000Y-2246967D02*
X11160000Y-2246967D01*
X11000000Y-17586967D02*
X11000000Y-17906967D01*
X10840000Y-17746967D02*
X11160000Y-17746967D01*
X16100000Y-3836967D02*
X16100000Y-4156967D01*
X15940000Y-3996967D02*
X16260000Y-3996967D01*
X16100000Y-15836967D02*
X16100000Y-16156967D01*
X15940000Y-15996967D02*
X16260000Y-15996967D01*
D11*
X3005777Y-18563451D02*
X3005777Y-18363451D01*
X3005777Y-18363451D02*
X3053396Y-18363451D01*
X3053396Y-18363451D02*
X3081967Y-18372975D01*
X3081967Y-18372975D02*
X3101015Y-18392022D01*
X3101015Y-18392022D02*
X3110539Y-18411070D01*
X3110539Y-18411070D02*
X3120062Y-18449165D01*
X3120062Y-18449165D02*
X3120062Y-18477737D01*
X3120062Y-18477737D02*
X3110539Y-18515832D01*
X3110539Y-18515832D02*
X3101015Y-18534879D01*
X3101015Y-18534879D02*
X3081967Y-18553927D01*
X3081967Y-18553927D02*
X3053396Y-18563451D01*
X3053396Y-18563451D02*
X3005777Y-18563451D01*
X3205777Y-18563451D02*
X3205777Y-18430117D01*
X3205777Y-18468213D02*
X3215301Y-18449165D01*
X3215301Y-18449165D02*
X3224824Y-18439641D01*
X3224824Y-18439641D02*
X3243872Y-18430117D01*
X3243872Y-18430117D02*
X3262920Y-18430117D01*
X3329586Y-18563451D02*
X3329586Y-18430117D01*
X3329586Y-18363451D02*
X3320062Y-18372975D01*
X3320062Y-18372975D02*
X3329586Y-18382498D01*
X3329586Y-18382498D02*
X3339110Y-18372975D01*
X3339110Y-18372975D02*
X3329586Y-18363451D01*
X3329586Y-18363451D02*
X3329586Y-18382498D01*
X3453396Y-18563451D02*
X3434348Y-18553927D01*
X3434348Y-18553927D02*
X3424824Y-18534879D01*
X3424824Y-18534879D02*
X3424824Y-18363451D01*
X3558158Y-18563451D02*
X3539110Y-18553927D01*
X3539110Y-18553927D02*
X3529586Y-18534879D01*
X3529586Y-18534879D02*
X3529586Y-18363451D01*
X3786729Y-18563451D02*
X3786729Y-18363451D01*
X3786729Y-18363451D02*
X3853396Y-18506308D01*
X3853396Y-18506308D02*
X3920062Y-18363451D01*
X3920062Y-18363451D02*
X3920062Y-18563451D01*
X4101015Y-18563451D02*
X4101015Y-18458689D01*
X4101015Y-18458689D02*
X4091491Y-18439641D01*
X4091491Y-18439641D02*
X4072443Y-18430117D01*
X4072443Y-18430117D02*
X4034348Y-18430117D01*
X4034348Y-18430117D02*
X4015301Y-18439641D01*
X4101015Y-18553927D02*
X4081967Y-18563451D01*
X4081967Y-18563451D02*
X4034348Y-18563451D01*
X4034348Y-18563451D02*
X4015301Y-18553927D01*
X4015301Y-18553927D02*
X4005777Y-18534879D01*
X4005777Y-18534879D02*
X4005777Y-18515832D01*
X4005777Y-18515832D02*
X4015301Y-18496784D01*
X4015301Y-18496784D02*
X4034348Y-18487260D01*
X4034348Y-18487260D02*
X4081967Y-18487260D01*
X4081967Y-18487260D02*
X4101015Y-18477737D01*
X4196253Y-18430117D02*
X4196253Y-18630117D01*
X4196253Y-18439641D02*
X4215301Y-18430117D01*
X4215301Y-18430117D02*
X4253396Y-18430117D01*
X4253396Y-18430117D02*
X4272444Y-18439641D01*
X4272444Y-18439641D02*
X4281967Y-18449165D01*
X4281967Y-18449165D02*
X4291491Y-18468213D01*
X4291491Y-18468213D02*
X4291491Y-18525356D01*
X4291491Y-18525356D02*
X4281967Y-18544403D01*
X4281967Y-18544403D02*
X4272444Y-18553927D01*
X4272444Y-18553927D02*
X4253396Y-18563451D01*
X4253396Y-18563451D02*
X4215301Y-18563451D01*
X4215301Y-18563451D02*
X4196253Y-18553927D01*
X4377205Y-18544403D02*
X4386729Y-18553927D01*
X4386729Y-18553927D02*
X4377205Y-18563451D01*
X4377205Y-18563451D02*
X4367682Y-18553927D01*
X4367682Y-18553927D02*
X4377205Y-18544403D01*
X4377205Y-18544403D02*
X4377205Y-18563451D01*
X4377205Y-18439641D02*
X4386729Y-18449165D01*
X4386729Y-18449165D02*
X4377205Y-18458689D01*
X4377205Y-18458689D02*
X4367682Y-18449165D01*
X4367682Y-18449165D02*
X4377205Y-18439641D01*
X4377205Y-18439641D02*
X4377205Y-18458689D01*
D10*
X2665000Y-18851967D02*
X2745000Y-18931967D01*
X2745000Y-18851967D02*
X2665000Y-18931967D01*
D11*
X3043872Y-18783451D02*
X3062920Y-18783451D01*
X3062920Y-18783451D02*
X3081967Y-18792975D01*
X3081967Y-18792975D02*
X3091491Y-18802498D01*
X3091491Y-18802498D02*
X3101015Y-18821546D01*
X3101015Y-18821546D02*
X3110539Y-18859641D01*
X3110539Y-18859641D02*
X3110539Y-18907260D01*
X3110539Y-18907260D02*
X3101015Y-18945356D01*
X3101015Y-18945356D02*
X3091491Y-18964403D01*
X3091491Y-18964403D02*
X3081967Y-18973927D01*
X3081967Y-18973927D02*
X3062920Y-18983451D01*
X3062920Y-18983451D02*
X3043872Y-18983451D01*
X3043872Y-18983451D02*
X3024824Y-18973927D01*
X3024824Y-18973927D02*
X3015301Y-18964403D01*
X3015301Y-18964403D02*
X3005777Y-18945356D01*
X3005777Y-18945356D02*
X2996253Y-18907260D01*
X2996253Y-18907260D02*
X2996253Y-18859641D01*
X2996253Y-18859641D02*
X3005777Y-18821546D01*
X3005777Y-18821546D02*
X3015301Y-18802498D01*
X3015301Y-18802498D02*
X3024824Y-18792975D01*
X3024824Y-18792975D02*
X3043872Y-18783451D01*
X3196253Y-18964403D02*
X3205777Y-18973927D01*
X3205777Y-18973927D02*
X3196253Y-18983451D01*
X3196253Y-18983451D02*
X3186729Y-18973927D01*
X3186729Y-18973927D02*
X3196253Y-18964403D01*
X3196253Y-18964403D02*
X3196253Y-18983451D01*
X3320062Y-18869165D02*
X3301015Y-18859641D01*
X3301015Y-18859641D02*
X3291491Y-18850117D01*
X3291491Y-18850117D02*
X3281967Y-18831070D01*
X3281967Y-18831070D02*
X3281967Y-18821546D01*
X3281967Y-18821546D02*
X3291491Y-18802498D01*
X3291491Y-18802498D02*
X3301015Y-18792975D01*
X3301015Y-18792975D02*
X3320062Y-18783451D01*
X3320062Y-18783451D02*
X3358158Y-18783451D01*
X3358158Y-18783451D02*
X3377205Y-18792975D01*
X3377205Y-18792975D02*
X3386729Y-18802498D01*
X3386729Y-18802498D02*
X3396253Y-18821546D01*
X3396253Y-18821546D02*
X3396253Y-18831070D01*
X3396253Y-18831070D02*
X3386729Y-18850117D01*
X3386729Y-18850117D02*
X3377205Y-18859641D01*
X3377205Y-18859641D02*
X3358158Y-18869165D01*
X3358158Y-18869165D02*
X3320062Y-18869165D01*
X3320062Y-18869165D02*
X3301015Y-18878689D01*
X3301015Y-18878689D02*
X3291491Y-18888213D01*
X3291491Y-18888213D02*
X3281967Y-18907260D01*
X3281967Y-18907260D02*
X3281967Y-18945356D01*
X3281967Y-18945356D02*
X3291491Y-18964403D01*
X3291491Y-18964403D02*
X3301015Y-18973927D01*
X3301015Y-18973927D02*
X3320062Y-18983451D01*
X3320062Y-18983451D02*
X3358158Y-18983451D01*
X3358158Y-18983451D02*
X3377205Y-18973927D01*
X3377205Y-18973927D02*
X3386729Y-18964403D01*
X3386729Y-18964403D02*
X3396253Y-18945356D01*
X3396253Y-18945356D02*
X3396253Y-18907260D01*
X3396253Y-18907260D02*
X3386729Y-18888213D01*
X3386729Y-18888213D02*
X3377205Y-18878689D01*
X3377205Y-18878689D02*
X3358158Y-18869165D01*
X3520062Y-18783451D02*
X3539110Y-18783451D01*
X3539110Y-18783451D02*
X3558158Y-18792975D01*
X3558158Y-18792975D02*
X3567682Y-18802498D01*
X3567682Y-18802498D02*
X3577205Y-18821546D01*
X3577205Y-18821546D02*
X3586729Y-18859641D01*
X3586729Y-18859641D02*
X3586729Y-18907260D01*
X3586729Y-18907260D02*
X3577205Y-18945356D01*
X3577205Y-18945356D02*
X3567682Y-18964403D01*
X3567682Y-18964403D02*
X3558158Y-18973927D01*
X3558158Y-18973927D02*
X3539110Y-18983451D01*
X3539110Y-18983451D02*
X3520062Y-18983451D01*
X3520062Y-18983451D02*
X3501015Y-18973927D01*
X3501015Y-18973927D02*
X3491491Y-18964403D01*
X3491491Y-18964403D02*
X3481967Y-18945356D01*
X3481967Y-18945356D02*
X3472443Y-18907260D01*
X3472443Y-18907260D02*
X3472443Y-18859641D01*
X3472443Y-18859641D02*
X3481967Y-18821546D01*
X3481967Y-18821546D02*
X3491491Y-18802498D01*
X3491491Y-18802498D02*
X3501015Y-18792975D01*
X3501015Y-18792975D02*
X3520062Y-18783451D01*
X3710539Y-18783451D02*
X3729586Y-18783451D01*
X3729586Y-18783451D02*
X3748634Y-18792975D01*
X3748634Y-18792975D02*
X3758158Y-18802498D01*
X3758158Y-18802498D02*
X3767682Y-18821546D01*
X3767682Y-18821546D02*
X3777205Y-18859641D01*
X3777205Y-18859641D02*
X3777205Y-18907260D01*
X3777205Y-18907260D02*
X3767682Y-18945356D01*
X3767682Y-18945356D02*
X3758158Y-18964403D01*
X3758158Y-18964403D02*
X3748634Y-18973927D01*
X3748634Y-18973927D02*
X3729586Y-18983451D01*
X3729586Y-18983451D02*
X3710539Y-18983451D01*
X3710539Y-18983451D02*
X3691491Y-18973927D01*
X3691491Y-18973927D02*
X3681967Y-18964403D01*
X3681967Y-18964403D02*
X3672443Y-18945356D01*
X3672443Y-18945356D02*
X3662920Y-18907260D01*
X3662920Y-18907260D02*
X3662920Y-18859641D01*
X3662920Y-18859641D02*
X3672443Y-18821546D01*
X3672443Y-18821546D02*
X3681967Y-18802498D01*
X3681967Y-18802498D02*
X3691491Y-18792975D01*
X3691491Y-18792975D02*
X3710539Y-18783451D01*
X3862920Y-18983451D02*
X3862920Y-18850117D01*
X3862920Y-18869165D02*
X3872443Y-18859641D01*
X3872443Y-18859641D02*
X3891491Y-18850117D01*
X3891491Y-18850117D02*
X3920063Y-18850117D01*
X3920063Y-18850117D02*
X3939110Y-18859641D01*
X3939110Y-18859641D02*
X3948634Y-18878689D01*
X3948634Y-18878689D02*
X3948634Y-18983451D01*
X3948634Y-18878689D02*
X3958158Y-18859641D01*
X3958158Y-18859641D02*
X3977205Y-18850117D01*
X3977205Y-18850117D02*
X4005777Y-18850117D01*
X4005777Y-18850117D02*
X4024824Y-18859641D01*
X4024824Y-18859641D02*
X4034348Y-18878689D01*
X4034348Y-18878689D02*
X4034348Y-18983451D01*
X4129586Y-18983451D02*
X4129586Y-18850117D01*
X4129586Y-18869165D02*
X4139110Y-18859641D01*
X4139110Y-18859641D02*
X4158158Y-18850117D01*
X4158158Y-18850117D02*
X4186729Y-18850117D01*
X4186729Y-18850117D02*
X4205777Y-18859641D01*
X4205777Y-18859641D02*
X4215301Y-18878689D01*
X4215301Y-18878689D02*
X4215301Y-18983451D01*
X4215301Y-18878689D02*
X4224825Y-18859641D01*
X4224825Y-18859641D02*
X4243872Y-18850117D01*
X4243872Y-18850117D02*
X4272444Y-18850117D01*
X4272444Y-18850117D02*
X4291491Y-18859641D01*
X4291491Y-18859641D02*
X4301015Y-18878689D01*
X4301015Y-18878689D02*
X4301015Y-18983451D01*
X4691491Y-18773927D02*
X4520063Y-19031070D01*
X4948634Y-18783451D02*
X4967682Y-18783451D01*
X4967682Y-18783451D02*
X4986729Y-18792975D01*
X4986729Y-18792975D02*
X4996253Y-18802498D01*
X4996253Y-18802498D02*
X5005777Y-18821546D01*
X5005777Y-18821546D02*
X5015301Y-18859641D01*
X5015301Y-18859641D02*
X5015301Y-18907260D01*
X5015301Y-18907260D02*
X5005777Y-18945356D01*
X5005777Y-18945356D02*
X4996253Y-18964403D01*
X4996253Y-18964403D02*
X4986729Y-18973927D01*
X4986729Y-18973927D02*
X4967682Y-18983451D01*
X4967682Y-18983451D02*
X4948634Y-18983451D01*
X4948634Y-18983451D02*
X4929587Y-18973927D01*
X4929587Y-18973927D02*
X4920063Y-18964403D01*
X4920063Y-18964403D02*
X4910539Y-18945356D01*
X4910539Y-18945356D02*
X4901015Y-18907260D01*
X4901015Y-18907260D02*
X4901015Y-18859641D01*
X4901015Y-18859641D02*
X4910539Y-18821546D01*
X4910539Y-18821546D02*
X4920063Y-18802498D01*
X4920063Y-18802498D02*
X4929587Y-18792975D01*
X4929587Y-18792975D02*
X4948634Y-18783451D01*
X5101015Y-18964403D02*
X5110539Y-18973927D01*
X5110539Y-18973927D02*
X5101015Y-18983451D01*
X5101015Y-18983451D02*
X5091491Y-18973927D01*
X5091491Y-18973927D02*
X5101015Y-18964403D01*
X5101015Y-18964403D02*
X5101015Y-18983451D01*
X5234348Y-18783451D02*
X5253396Y-18783451D01*
X5253396Y-18783451D02*
X5272444Y-18792975D01*
X5272444Y-18792975D02*
X5281968Y-18802498D01*
X5281968Y-18802498D02*
X5291491Y-18821546D01*
X5291491Y-18821546D02*
X5301015Y-18859641D01*
X5301015Y-18859641D02*
X5301015Y-18907260D01*
X5301015Y-18907260D02*
X5291491Y-18945356D01*
X5291491Y-18945356D02*
X5281968Y-18964403D01*
X5281968Y-18964403D02*
X5272444Y-18973927D01*
X5272444Y-18973927D02*
X5253396Y-18983451D01*
X5253396Y-18983451D02*
X5234348Y-18983451D01*
X5234348Y-18983451D02*
X5215301Y-18973927D01*
X5215301Y-18973927D02*
X5205777Y-18964403D01*
X5205777Y-18964403D02*
X5196253Y-18945356D01*
X5196253Y-18945356D02*
X5186729Y-18907260D01*
X5186729Y-18907260D02*
X5186729Y-18859641D01*
X5186729Y-18859641D02*
X5196253Y-18821546D01*
X5196253Y-18821546D02*
X5205777Y-18802498D01*
X5205777Y-18802498D02*
X5215301Y-18792975D01*
X5215301Y-18792975D02*
X5234348Y-18783451D01*
X5367682Y-18783451D02*
X5491491Y-18783451D01*
X5491491Y-18783451D02*
X5424825Y-18859641D01*
X5424825Y-18859641D02*
X5453396Y-18859641D01*
X5453396Y-18859641D02*
X5472444Y-18869165D01*
X5472444Y-18869165D02*
X5481968Y-18878689D01*
X5481968Y-18878689D02*
X5491491Y-18897737D01*
X5491491Y-18897737D02*
X5491491Y-18945356D01*
X5491491Y-18945356D02*
X5481968Y-18964403D01*
X5481968Y-18964403D02*
X5472444Y-18973927D01*
X5472444Y-18973927D02*
X5453396Y-18983451D01*
X5453396Y-18983451D02*
X5396253Y-18983451D01*
X5396253Y-18983451D02*
X5377206Y-18973927D01*
X5377206Y-18973927D02*
X5367682Y-18964403D01*
X5681967Y-18983451D02*
X5567682Y-18983451D01*
X5624825Y-18983451D02*
X5624825Y-18783451D01*
X5624825Y-18783451D02*
X5605777Y-18812022D01*
X5605777Y-18812022D02*
X5586729Y-18831070D01*
X5586729Y-18831070D02*
X5567682Y-18840594D01*
X5862920Y-18783451D02*
X5767682Y-18783451D01*
X5767682Y-18783451D02*
X5758158Y-18878689D01*
X5758158Y-18878689D02*
X5767682Y-18869165D01*
X5767682Y-18869165D02*
X5786729Y-18859641D01*
X5786729Y-18859641D02*
X5834348Y-18859641D01*
X5834348Y-18859641D02*
X5853396Y-18869165D01*
X5853396Y-18869165D02*
X5862920Y-18878689D01*
X5862920Y-18878689D02*
X5872444Y-18897737D01*
X5872444Y-18897737D02*
X5872444Y-18945356D01*
X5872444Y-18945356D02*
X5862920Y-18964403D01*
X5862920Y-18964403D02*
X5853396Y-18973927D01*
X5853396Y-18973927D02*
X5834348Y-18983451D01*
X5834348Y-18983451D02*
X5786729Y-18983451D01*
X5786729Y-18983451D02*
X5767682Y-18973927D01*
X5767682Y-18973927D02*
X5758158Y-18964403D01*
X5948634Y-18783451D02*
X5948634Y-18821546D01*
X6024825Y-18783451D02*
X6024825Y-18821546D01*
X6320063Y-19059641D02*
X6310539Y-19050117D01*
X6310539Y-19050117D02*
X6291491Y-19021546D01*
X6291491Y-19021546D02*
X6281968Y-19002498D01*
X6281968Y-19002498D02*
X6272444Y-18973927D01*
X6272444Y-18973927D02*
X6262920Y-18926308D01*
X6262920Y-18926308D02*
X6262920Y-18888213D01*
X6262920Y-18888213D02*
X6272444Y-18840594D01*
X6272444Y-18840594D02*
X6281968Y-18812022D01*
X6281968Y-18812022D02*
X6291491Y-18792975D01*
X6291491Y-18792975D02*
X6310539Y-18764403D01*
X6310539Y-18764403D02*
X6320063Y-18754879D01*
X6481968Y-18783451D02*
X6443872Y-18783451D01*
X6443872Y-18783451D02*
X6424825Y-18792975D01*
X6424825Y-18792975D02*
X6415301Y-18802498D01*
X6415301Y-18802498D02*
X6396253Y-18831070D01*
X6396253Y-18831070D02*
X6386729Y-18869165D01*
X6386729Y-18869165D02*
X6386729Y-18945356D01*
X6386729Y-18945356D02*
X6396253Y-18964403D01*
X6396253Y-18964403D02*
X6405777Y-18973927D01*
X6405777Y-18973927D02*
X6424825Y-18983451D01*
X6424825Y-18983451D02*
X6462920Y-18983451D01*
X6462920Y-18983451D02*
X6481968Y-18973927D01*
X6481968Y-18973927D02*
X6491491Y-18964403D01*
X6491491Y-18964403D02*
X6501015Y-18945356D01*
X6501015Y-18945356D02*
X6501015Y-18897737D01*
X6501015Y-18897737D02*
X6491491Y-18878689D01*
X6491491Y-18878689D02*
X6481968Y-18869165D01*
X6481968Y-18869165D02*
X6462920Y-18859641D01*
X6462920Y-18859641D02*
X6424825Y-18859641D01*
X6424825Y-18859641D02*
X6405777Y-18869165D01*
X6405777Y-18869165D02*
X6396253Y-18878689D01*
X6396253Y-18878689D02*
X6386729Y-18897737D01*
X6739110Y-18983451D02*
X6739110Y-18783451D01*
X6824825Y-18983451D02*
X6824825Y-18878689D01*
X6824825Y-18878689D02*
X6815301Y-18859641D01*
X6815301Y-18859641D02*
X6796253Y-18850117D01*
X6796253Y-18850117D02*
X6767682Y-18850117D01*
X6767682Y-18850117D02*
X6748634Y-18859641D01*
X6748634Y-18859641D02*
X6739110Y-18869165D01*
X6948634Y-18983451D02*
X6929587Y-18973927D01*
X6929587Y-18973927D02*
X6920063Y-18964403D01*
X6920063Y-18964403D02*
X6910539Y-18945356D01*
X6910539Y-18945356D02*
X6910539Y-18888213D01*
X6910539Y-18888213D02*
X6920063Y-18869165D01*
X6920063Y-18869165D02*
X6929587Y-18859641D01*
X6929587Y-18859641D02*
X6948634Y-18850117D01*
X6948634Y-18850117D02*
X6977206Y-18850117D01*
X6977206Y-18850117D02*
X6996253Y-18859641D01*
X6996253Y-18859641D02*
X7005777Y-18869165D01*
X7005777Y-18869165D02*
X7015301Y-18888213D01*
X7015301Y-18888213D02*
X7015301Y-18945356D01*
X7015301Y-18945356D02*
X7005777Y-18964403D01*
X7005777Y-18964403D02*
X6996253Y-18973927D01*
X6996253Y-18973927D02*
X6977206Y-18983451D01*
X6977206Y-18983451D02*
X6948634Y-18983451D01*
X7129587Y-18983451D02*
X7110539Y-18973927D01*
X7110539Y-18973927D02*
X7101015Y-18954879D01*
X7101015Y-18954879D02*
X7101015Y-18783451D01*
X7281968Y-18973927D02*
X7262920Y-18983451D01*
X7262920Y-18983451D02*
X7224825Y-18983451D01*
X7224825Y-18983451D02*
X7205777Y-18973927D01*
X7205777Y-18973927D02*
X7196253Y-18954879D01*
X7196253Y-18954879D02*
X7196253Y-18878689D01*
X7196253Y-18878689D02*
X7205777Y-18859641D01*
X7205777Y-18859641D02*
X7224825Y-18850117D01*
X7224825Y-18850117D02*
X7262920Y-18850117D01*
X7262920Y-18850117D02*
X7281968Y-18859641D01*
X7281968Y-18859641D02*
X7291491Y-18878689D01*
X7291491Y-18878689D02*
X7291491Y-18897737D01*
X7291491Y-18897737D02*
X7196253Y-18916784D01*
X7367682Y-18973927D02*
X7386730Y-18983451D01*
X7386730Y-18983451D02*
X7424825Y-18983451D01*
X7424825Y-18983451D02*
X7443872Y-18973927D01*
X7443872Y-18973927D02*
X7453396Y-18954879D01*
X7453396Y-18954879D02*
X7453396Y-18945356D01*
X7453396Y-18945356D02*
X7443872Y-18926308D01*
X7443872Y-18926308D02*
X7424825Y-18916784D01*
X7424825Y-18916784D02*
X7396253Y-18916784D01*
X7396253Y-18916784D02*
X7377206Y-18907260D01*
X7377206Y-18907260D02*
X7367682Y-18888213D01*
X7367682Y-18888213D02*
X7367682Y-18878689D01*
X7367682Y-18878689D02*
X7377206Y-18859641D01*
X7377206Y-18859641D02*
X7396253Y-18850117D01*
X7396253Y-18850117D02*
X7424825Y-18850117D01*
X7424825Y-18850117D02*
X7443872Y-18859641D01*
X7520063Y-19059641D02*
X7529587Y-19050117D01*
X7529587Y-19050117D02*
X7548634Y-19021546D01*
X7548634Y-19021546D02*
X7558158Y-19002498D01*
X7558158Y-19002498D02*
X7567682Y-18973927D01*
X7567682Y-18973927D02*
X7577206Y-18926308D01*
X7577206Y-18926308D02*
X7577206Y-18888213D01*
X7577206Y-18888213D02*
X7567682Y-18840594D01*
X7567682Y-18840594D02*
X7558158Y-18812022D01*
X7558158Y-18812022D02*
X7548634Y-18792975D01*
X7548634Y-18792975D02*
X7529587Y-18764403D01*
X7529587Y-18764403D02*
X7520063Y-18754879D01*
X2745000Y-19155967D02*
G75*
G02*
X2545000Y-19155967I-100000J0D01*
G01*
X2545000Y-19155967D02*
G75*
G02*
X2745000Y-19155967I100000J0D01*
G01*
X2996253Y-19066498D02*
X3005777Y-19056975D01*
X3005777Y-19056975D02*
X3024824Y-19047451D01*
X3024824Y-19047451D02*
X3072443Y-19047451D01*
X3072443Y-19047451D02*
X3091491Y-19056975D01*
X3091491Y-19056975D02*
X3101015Y-19066498D01*
X3101015Y-19066498D02*
X3110539Y-19085546D01*
X3110539Y-19085546D02*
X3110539Y-19104594D01*
X3110539Y-19104594D02*
X3101015Y-19133165D01*
X3101015Y-19133165D02*
X2986729Y-19247451D01*
X2986729Y-19247451D02*
X3110539Y-19247451D01*
X3196253Y-19228403D02*
X3205777Y-19237927D01*
X3205777Y-19237927D02*
X3196253Y-19247451D01*
X3196253Y-19247451D02*
X3186729Y-19237927D01*
X3186729Y-19237927D02*
X3196253Y-19228403D01*
X3196253Y-19228403D02*
X3196253Y-19247451D01*
X3386729Y-19047451D02*
X3291491Y-19047451D01*
X3291491Y-19047451D02*
X3281967Y-19142689D01*
X3281967Y-19142689D02*
X3291491Y-19133165D01*
X3291491Y-19133165D02*
X3310539Y-19123641D01*
X3310539Y-19123641D02*
X3358158Y-19123641D01*
X3358158Y-19123641D02*
X3377205Y-19133165D01*
X3377205Y-19133165D02*
X3386729Y-19142689D01*
X3386729Y-19142689D02*
X3396253Y-19161737D01*
X3396253Y-19161737D02*
X3396253Y-19209356D01*
X3396253Y-19209356D02*
X3386729Y-19228403D01*
X3386729Y-19228403D02*
X3377205Y-19237927D01*
X3377205Y-19237927D02*
X3358158Y-19247451D01*
X3358158Y-19247451D02*
X3310539Y-19247451D01*
X3310539Y-19247451D02*
X3291491Y-19237927D01*
X3291491Y-19237927D02*
X3281967Y-19228403D01*
X3520062Y-19047451D02*
X3539110Y-19047451D01*
X3539110Y-19047451D02*
X3558158Y-19056975D01*
X3558158Y-19056975D02*
X3567682Y-19066498D01*
X3567682Y-19066498D02*
X3577205Y-19085546D01*
X3577205Y-19085546D02*
X3586729Y-19123641D01*
X3586729Y-19123641D02*
X3586729Y-19171260D01*
X3586729Y-19171260D02*
X3577205Y-19209356D01*
X3577205Y-19209356D02*
X3567682Y-19228403D01*
X3567682Y-19228403D02*
X3558158Y-19237927D01*
X3558158Y-19237927D02*
X3539110Y-19247451D01*
X3539110Y-19247451D02*
X3520062Y-19247451D01*
X3520062Y-19247451D02*
X3501015Y-19237927D01*
X3501015Y-19237927D02*
X3491491Y-19228403D01*
X3491491Y-19228403D02*
X3481967Y-19209356D01*
X3481967Y-19209356D02*
X3472443Y-19171260D01*
X3472443Y-19171260D02*
X3472443Y-19123641D01*
X3472443Y-19123641D02*
X3481967Y-19085546D01*
X3481967Y-19085546D02*
X3491491Y-19066498D01*
X3491491Y-19066498D02*
X3501015Y-19056975D01*
X3501015Y-19056975D02*
X3520062Y-19047451D01*
X3710539Y-19047451D02*
X3729586Y-19047451D01*
X3729586Y-19047451D02*
X3748634Y-19056975D01*
X3748634Y-19056975D02*
X3758158Y-19066498D01*
X3758158Y-19066498D02*
X3767682Y-19085546D01*
X3767682Y-19085546D02*
X3777205Y-19123641D01*
X3777205Y-19123641D02*
X3777205Y-19171260D01*
X3777205Y-19171260D02*
X3767682Y-19209356D01*
X3767682Y-19209356D02*
X3758158Y-19228403D01*
X3758158Y-19228403D02*
X3748634Y-19237927D01*
X3748634Y-19237927D02*
X3729586Y-19247451D01*
X3729586Y-19247451D02*
X3710539Y-19247451D01*
X3710539Y-19247451D02*
X3691491Y-19237927D01*
X3691491Y-19237927D02*
X3681967Y-19228403D01*
X3681967Y-19228403D02*
X3672443Y-19209356D01*
X3672443Y-19209356D02*
X3662920Y-19171260D01*
X3662920Y-19171260D02*
X3662920Y-19123641D01*
X3662920Y-19123641D02*
X3672443Y-19085546D01*
X3672443Y-19085546D02*
X3681967Y-19066498D01*
X3681967Y-19066498D02*
X3691491Y-19056975D01*
X3691491Y-19056975D02*
X3710539Y-19047451D01*
X3862920Y-19247451D02*
X3862920Y-19114117D01*
X3862920Y-19133165D02*
X3872443Y-19123641D01*
X3872443Y-19123641D02*
X3891491Y-19114117D01*
X3891491Y-19114117D02*
X3920063Y-19114117D01*
X3920063Y-19114117D02*
X3939110Y-19123641D01*
X3939110Y-19123641D02*
X3948634Y-19142689D01*
X3948634Y-19142689D02*
X3948634Y-19247451D01*
X3948634Y-19142689D02*
X3958158Y-19123641D01*
X3958158Y-19123641D02*
X3977205Y-19114117D01*
X3977205Y-19114117D02*
X4005777Y-19114117D01*
X4005777Y-19114117D02*
X4024824Y-19123641D01*
X4024824Y-19123641D02*
X4034348Y-19142689D01*
X4034348Y-19142689D02*
X4034348Y-19247451D01*
X4129586Y-19247451D02*
X4129586Y-19114117D01*
X4129586Y-19133165D02*
X4139110Y-19123641D01*
X4139110Y-19123641D02*
X4158158Y-19114117D01*
X4158158Y-19114117D02*
X4186729Y-19114117D01*
X4186729Y-19114117D02*
X4205777Y-19123641D01*
X4205777Y-19123641D02*
X4215301Y-19142689D01*
X4215301Y-19142689D02*
X4215301Y-19247451D01*
X4215301Y-19142689D02*
X4224825Y-19123641D01*
X4224825Y-19123641D02*
X4243872Y-19114117D01*
X4243872Y-19114117D02*
X4272444Y-19114117D01*
X4272444Y-19114117D02*
X4291491Y-19123641D01*
X4291491Y-19123641D02*
X4301015Y-19142689D01*
X4301015Y-19142689D02*
X4301015Y-19247451D01*
X4691491Y-19037927D02*
X4520063Y-19295070D01*
X4948634Y-19047451D02*
X4967682Y-19047451D01*
X4967682Y-19047451D02*
X4986729Y-19056975D01*
X4986729Y-19056975D02*
X4996253Y-19066498D01*
X4996253Y-19066498D02*
X5005777Y-19085546D01*
X5005777Y-19085546D02*
X5015301Y-19123641D01*
X5015301Y-19123641D02*
X5015301Y-19171260D01*
X5015301Y-19171260D02*
X5005777Y-19209356D01*
X5005777Y-19209356D02*
X4996253Y-19228403D01*
X4996253Y-19228403D02*
X4986729Y-19237927D01*
X4986729Y-19237927D02*
X4967682Y-19247451D01*
X4967682Y-19247451D02*
X4948634Y-19247451D01*
X4948634Y-19247451D02*
X4929587Y-19237927D01*
X4929587Y-19237927D02*
X4920063Y-19228403D01*
X4920063Y-19228403D02*
X4910539Y-19209356D01*
X4910539Y-19209356D02*
X4901015Y-19171260D01*
X4901015Y-19171260D02*
X4901015Y-19123641D01*
X4901015Y-19123641D02*
X4910539Y-19085546D01*
X4910539Y-19085546D02*
X4920063Y-19066498D01*
X4920063Y-19066498D02*
X4929587Y-19056975D01*
X4929587Y-19056975D02*
X4948634Y-19047451D01*
X5101015Y-19228403D02*
X5110539Y-19237927D01*
X5110539Y-19237927D02*
X5101015Y-19247451D01*
X5101015Y-19247451D02*
X5091491Y-19237927D01*
X5091491Y-19237927D02*
X5101015Y-19228403D01*
X5101015Y-19228403D02*
X5101015Y-19247451D01*
X5234348Y-19047451D02*
X5253396Y-19047451D01*
X5253396Y-19047451D02*
X5272444Y-19056975D01*
X5272444Y-19056975D02*
X5281968Y-19066498D01*
X5281968Y-19066498D02*
X5291491Y-19085546D01*
X5291491Y-19085546D02*
X5301015Y-19123641D01*
X5301015Y-19123641D02*
X5301015Y-19171260D01*
X5301015Y-19171260D02*
X5291491Y-19209356D01*
X5291491Y-19209356D02*
X5281968Y-19228403D01*
X5281968Y-19228403D02*
X5272444Y-19237927D01*
X5272444Y-19237927D02*
X5253396Y-19247451D01*
X5253396Y-19247451D02*
X5234348Y-19247451D01*
X5234348Y-19247451D02*
X5215301Y-19237927D01*
X5215301Y-19237927D02*
X5205777Y-19228403D01*
X5205777Y-19228403D02*
X5196253Y-19209356D01*
X5196253Y-19209356D02*
X5186729Y-19171260D01*
X5186729Y-19171260D02*
X5186729Y-19123641D01*
X5186729Y-19123641D02*
X5196253Y-19085546D01*
X5196253Y-19085546D02*
X5205777Y-19066498D01*
X5205777Y-19066498D02*
X5215301Y-19056975D01*
X5215301Y-19056975D02*
X5234348Y-19047451D01*
X5396253Y-19247451D02*
X5434348Y-19247451D01*
X5434348Y-19247451D02*
X5453396Y-19237927D01*
X5453396Y-19237927D02*
X5462920Y-19228403D01*
X5462920Y-19228403D02*
X5481968Y-19199832D01*
X5481968Y-19199832D02*
X5491491Y-19161737D01*
X5491491Y-19161737D02*
X5491491Y-19085546D01*
X5491491Y-19085546D02*
X5481968Y-19066498D01*
X5481968Y-19066498D02*
X5472444Y-19056975D01*
X5472444Y-19056975D02*
X5453396Y-19047451D01*
X5453396Y-19047451D02*
X5415301Y-19047451D01*
X5415301Y-19047451D02*
X5396253Y-19056975D01*
X5396253Y-19056975D02*
X5386729Y-19066498D01*
X5386729Y-19066498D02*
X5377206Y-19085546D01*
X5377206Y-19085546D02*
X5377206Y-19133165D01*
X5377206Y-19133165D02*
X5386729Y-19152213D01*
X5386729Y-19152213D02*
X5396253Y-19161737D01*
X5396253Y-19161737D02*
X5415301Y-19171260D01*
X5415301Y-19171260D02*
X5453396Y-19171260D01*
X5453396Y-19171260D02*
X5472444Y-19161737D01*
X5472444Y-19161737D02*
X5481968Y-19152213D01*
X5481968Y-19152213D02*
X5491491Y-19133165D01*
X5605777Y-19133165D02*
X5586729Y-19123641D01*
X5586729Y-19123641D02*
X5577206Y-19114117D01*
X5577206Y-19114117D02*
X5567682Y-19095070D01*
X5567682Y-19095070D02*
X5567682Y-19085546D01*
X5567682Y-19085546D02*
X5577206Y-19066498D01*
X5577206Y-19066498D02*
X5586729Y-19056975D01*
X5586729Y-19056975D02*
X5605777Y-19047451D01*
X5605777Y-19047451D02*
X5643872Y-19047451D01*
X5643872Y-19047451D02*
X5662920Y-19056975D01*
X5662920Y-19056975D02*
X5672444Y-19066498D01*
X5672444Y-19066498D02*
X5681967Y-19085546D01*
X5681967Y-19085546D02*
X5681967Y-19095070D01*
X5681967Y-19095070D02*
X5672444Y-19114117D01*
X5672444Y-19114117D02*
X5662920Y-19123641D01*
X5662920Y-19123641D02*
X5643872Y-19133165D01*
X5643872Y-19133165D02*
X5605777Y-19133165D01*
X5605777Y-19133165D02*
X5586729Y-19142689D01*
X5586729Y-19142689D02*
X5577206Y-19152213D01*
X5577206Y-19152213D02*
X5567682Y-19171260D01*
X5567682Y-19171260D02*
X5567682Y-19209356D01*
X5567682Y-19209356D02*
X5577206Y-19228403D01*
X5577206Y-19228403D02*
X5586729Y-19237927D01*
X5586729Y-19237927D02*
X5605777Y-19247451D01*
X5605777Y-19247451D02*
X5643872Y-19247451D01*
X5643872Y-19247451D02*
X5662920Y-19237927D01*
X5662920Y-19237927D02*
X5672444Y-19228403D01*
X5672444Y-19228403D02*
X5681967Y-19209356D01*
X5681967Y-19209356D02*
X5681967Y-19171260D01*
X5681967Y-19171260D02*
X5672444Y-19152213D01*
X5672444Y-19152213D02*
X5662920Y-19142689D01*
X5662920Y-19142689D02*
X5643872Y-19133165D01*
X5853396Y-19114117D02*
X5853396Y-19247451D01*
X5805777Y-19037927D02*
X5758158Y-19180784D01*
X5758158Y-19180784D02*
X5881967Y-19180784D01*
X5948634Y-19047451D02*
X5948634Y-19085546D01*
X6024825Y-19047451D02*
X6024825Y-19085546D01*
X6320063Y-19323641D02*
X6310539Y-19314117D01*
X6310539Y-19314117D02*
X6291491Y-19285546D01*
X6291491Y-19285546D02*
X6281968Y-19266498D01*
X6281968Y-19266498D02*
X6272444Y-19237927D01*
X6272444Y-19237927D02*
X6262920Y-19190308D01*
X6262920Y-19190308D02*
X6262920Y-19152213D01*
X6262920Y-19152213D02*
X6272444Y-19104594D01*
X6272444Y-19104594D02*
X6281968Y-19076022D01*
X6281968Y-19076022D02*
X6291491Y-19056975D01*
X6291491Y-19056975D02*
X6310539Y-19028403D01*
X6310539Y-19028403D02*
X6320063Y-19018879D01*
X6481968Y-19114117D02*
X6481968Y-19247451D01*
X6434348Y-19037927D02*
X6386729Y-19180784D01*
X6386729Y-19180784D02*
X6510539Y-19180784D01*
X6739110Y-19247451D02*
X6739110Y-19047451D01*
X6824825Y-19247451D02*
X6824825Y-19142689D01*
X6824825Y-19142689D02*
X6815301Y-19123641D01*
X6815301Y-19123641D02*
X6796253Y-19114117D01*
X6796253Y-19114117D02*
X6767682Y-19114117D01*
X6767682Y-19114117D02*
X6748634Y-19123641D01*
X6748634Y-19123641D02*
X6739110Y-19133165D01*
X6948634Y-19247451D02*
X6929587Y-19237927D01*
X6929587Y-19237927D02*
X6920063Y-19228403D01*
X6920063Y-19228403D02*
X6910539Y-19209356D01*
X6910539Y-19209356D02*
X6910539Y-19152213D01*
X6910539Y-19152213D02*
X6920063Y-19133165D01*
X6920063Y-19133165D02*
X6929587Y-19123641D01*
X6929587Y-19123641D02*
X6948634Y-19114117D01*
X6948634Y-19114117D02*
X6977206Y-19114117D01*
X6977206Y-19114117D02*
X6996253Y-19123641D01*
X6996253Y-19123641D02*
X7005777Y-19133165D01*
X7005777Y-19133165D02*
X7015301Y-19152213D01*
X7015301Y-19152213D02*
X7015301Y-19209356D01*
X7015301Y-19209356D02*
X7005777Y-19228403D01*
X7005777Y-19228403D02*
X6996253Y-19237927D01*
X6996253Y-19237927D02*
X6977206Y-19247451D01*
X6977206Y-19247451D02*
X6948634Y-19247451D01*
X7129587Y-19247451D02*
X7110539Y-19237927D01*
X7110539Y-19237927D02*
X7101015Y-19218879D01*
X7101015Y-19218879D02*
X7101015Y-19047451D01*
X7281968Y-19237927D02*
X7262920Y-19247451D01*
X7262920Y-19247451D02*
X7224825Y-19247451D01*
X7224825Y-19247451D02*
X7205777Y-19237927D01*
X7205777Y-19237927D02*
X7196253Y-19218879D01*
X7196253Y-19218879D02*
X7196253Y-19142689D01*
X7196253Y-19142689D02*
X7205777Y-19123641D01*
X7205777Y-19123641D02*
X7224825Y-19114117D01*
X7224825Y-19114117D02*
X7262920Y-19114117D01*
X7262920Y-19114117D02*
X7281968Y-19123641D01*
X7281968Y-19123641D02*
X7291491Y-19142689D01*
X7291491Y-19142689D02*
X7291491Y-19161737D01*
X7291491Y-19161737D02*
X7196253Y-19180784D01*
X7367682Y-19237927D02*
X7386730Y-19247451D01*
X7386730Y-19247451D02*
X7424825Y-19247451D01*
X7424825Y-19247451D02*
X7443872Y-19237927D01*
X7443872Y-19237927D02*
X7453396Y-19218879D01*
X7453396Y-19218879D02*
X7453396Y-19209356D01*
X7453396Y-19209356D02*
X7443872Y-19190308D01*
X7443872Y-19190308D02*
X7424825Y-19180784D01*
X7424825Y-19180784D02*
X7396253Y-19180784D01*
X7396253Y-19180784D02*
X7377206Y-19171260D01*
X7377206Y-19171260D02*
X7367682Y-19152213D01*
X7367682Y-19152213D02*
X7367682Y-19142689D01*
X7367682Y-19142689D02*
X7377206Y-19123641D01*
X7377206Y-19123641D02*
X7396253Y-19114117D01*
X7396253Y-19114117D02*
X7424825Y-19114117D01*
X7424825Y-19114117D02*
X7443872Y-19123641D01*
X7520063Y-19323641D02*
X7529587Y-19314117D01*
X7529587Y-19314117D02*
X7548634Y-19285546D01*
X7548634Y-19285546D02*
X7558158Y-19266498D01*
X7558158Y-19266498D02*
X7567682Y-19237927D01*
X7567682Y-19237927D02*
X7577206Y-19190308D01*
X7577206Y-19190308D02*
X7577206Y-19152213D01*
X7577206Y-19152213D02*
X7567682Y-19104594D01*
X7567682Y-19104594D02*
X7558158Y-19076022D01*
X7558158Y-19076022D02*
X7548634Y-19056975D01*
X7548634Y-19056975D02*
X7529587Y-19028403D01*
X7529587Y-19028403D02*
X7520063Y-19018879D01*
X7881968Y-19323641D02*
X7872444Y-19314117D01*
X7872444Y-19314117D02*
X7853396Y-19285546D01*
X7853396Y-19285546D02*
X7843872Y-19266498D01*
X7843872Y-19266498D02*
X7834349Y-19237927D01*
X7834349Y-19237927D02*
X7824825Y-19190308D01*
X7824825Y-19190308D02*
X7824825Y-19152213D01*
X7824825Y-19152213D02*
X7834349Y-19104594D01*
X7834349Y-19104594D02*
X7843872Y-19076022D01*
X7843872Y-19076022D02*
X7853396Y-19056975D01*
X7853396Y-19056975D02*
X7872444Y-19028403D01*
X7872444Y-19028403D02*
X7881968Y-19018879D01*
X7958158Y-19114117D02*
X7958158Y-19247451D01*
X7958158Y-19133165D02*
X7967682Y-19123641D01*
X7967682Y-19123641D02*
X7986730Y-19114117D01*
X7986730Y-19114117D02*
X8015301Y-19114117D01*
X8015301Y-19114117D02*
X8034349Y-19123641D01*
X8034349Y-19123641D02*
X8043872Y-19142689D01*
X8043872Y-19142689D02*
X8043872Y-19247451D01*
X8167682Y-19247451D02*
X8148634Y-19237927D01*
X8148634Y-19237927D02*
X8139111Y-19228403D01*
X8139111Y-19228403D02*
X8129587Y-19209356D01*
X8129587Y-19209356D02*
X8129587Y-19152213D01*
X8129587Y-19152213D02*
X8139111Y-19133165D01*
X8139111Y-19133165D02*
X8148634Y-19123641D01*
X8148634Y-19123641D02*
X8167682Y-19114117D01*
X8167682Y-19114117D02*
X8196253Y-19114117D01*
X8196253Y-19114117D02*
X8215301Y-19123641D01*
X8215301Y-19123641D02*
X8224825Y-19133165D01*
X8224825Y-19133165D02*
X8234349Y-19152213D01*
X8234349Y-19152213D02*
X8234349Y-19209356D01*
X8234349Y-19209356D02*
X8224825Y-19228403D01*
X8224825Y-19228403D02*
X8215301Y-19237927D01*
X8215301Y-19237927D02*
X8196253Y-19247451D01*
X8196253Y-19247451D02*
X8167682Y-19247451D01*
X8291492Y-19114117D02*
X8367682Y-19114117D01*
X8320063Y-19047451D02*
X8320063Y-19218879D01*
X8320063Y-19218879D02*
X8329587Y-19237927D01*
X8329587Y-19237927D02*
X8348634Y-19247451D01*
X8348634Y-19247451D02*
X8367682Y-19247451D01*
X8586730Y-19114117D02*
X8586730Y-19314117D01*
X8586730Y-19123641D02*
X8605777Y-19114117D01*
X8605777Y-19114117D02*
X8643873Y-19114117D01*
X8643873Y-19114117D02*
X8662920Y-19123641D01*
X8662920Y-19123641D02*
X8672444Y-19133165D01*
X8672444Y-19133165D02*
X8681968Y-19152213D01*
X8681968Y-19152213D02*
X8681968Y-19209356D01*
X8681968Y-19209356D02*
X8672444Y-19228403D01*
X8672444Y-19228403D02*
X8662920Y-19237927D01*
X8662920Y-19237927D02*
X8643873Y-19247451D01*
X8643873Y-19247451D02*
X8605777Y-19247451D01*
X8605777Y-19247451D02*
X8586730Y-19237927D01*
X8796254Y-19247451D02*
X8777206Y-19237927D01*
X8777206Y-19237927D02*
X8767682Y-19218879D01*
X8767682Y-19218879D02*
X8767682Y-19047451D01*
X8958158Y-19247451D02*
X8958158Y-19142689D01*
X8958158Y-19142689D02*
X8948635Y-19123641D01*
X8948635Y-19123641D02*
X8929587Y-19114117D01*
X8929587Y-19114117D02*
X8891492Y-19114117D01*
X8891492Y-19114117D02*
X8872444Y-19123641D01*
X8958158Y-19237927D02*
X8939111Y-19247451D01*
X8939111Y-19247451D02*
X8891492Y-19247451D01*
X8891492Y-19247451D02*
X8872444Y-19237927D01*
X8872444Y-19237927D02*
X8862920Y-19218879D01*
X8862920Y-19218879D02*
X8862920Y-19199832D01*
X8862920Y-19199832D02*
X8872444Y-19180784D01*
X8872444Y-19180784D02*
X8891492Y-19171260D01*
X8891492Y-19171260D02*
X8939111Y-19171260D01*
X8939111Y-19171260D02*
X8958158Y-19161737D01*
X9024825Y-19114117D02*
X9101015Y-19114117D01*
X9053396Y-19047451D02*
X9053396Y-19218879D01*
X9053396Y-19218879D02*
X9062920Y-19237927D01*
X9062920Y-19237927D02*
X9081968Y-19247451D01*
X9081968Y-19247451D02*
X9101015Y-19247451D01*
X9243873Y-19237927D02*
X9224825Y-19247451D01*
X9224825Y-19247451D02*
X9186730Y-19247451D01*
X9186730Y-19247451D02*
X9167682Y-19237927D01*
X9167682Y-19237927D02*
X9158158Y-19218879D01*
X9158158Y-19218879D02*
X9158158Y-19142689D01*
X9158158Y-19142689D02*
X9167682Y-19123641D01*
X9167682Y-19123641D02*
X9186730Y-19114117D01*
X9186730Y-19114117D02*
X9224825Y-19114117D01*
X9224825Y-19114117D02*
X9243873Y-19123641D01*
X9243873Y-19123641D02*
X9253396Y-19142689D01*
X9253396Y-19142689D02*
X9253396Y-19161737D01*
X9253396Y-19161737D02*
X9158158Y-19180784D01*
X9424825Y-19247451D02*
X9424825Y-19047451D01*
X9424825Y-19237927D02*
X9405777Y-19247451D01*
X9405777Y-19247451D02*
X9367682Y-19247451D01*
X9367682Y-19247451D02*
X9348635Y-19237927D01*
X9348635Y-19237927D02*
X9339111Y-19228403D01*
X9339111Y-19228403D02*
X9329587Y-19209356D01*
X9329587Y-19209356D02*
X9329587Y-19152213D01*
X9329587Y-19152213D02*
X9339111Y-19133165D01*
X9339111Y-19133165D02*
X9348635Y-19123641D01*
X9348635Y-19123641D02*
X9367682Y-19114117D01*
X9367682Y-19114117D02*
X9405777Y-19114117D01*
X9405777Y-19114117D02*
X9424825Y-19123641D01*
X9501016Y-19323641D02*
X9510539Y-19314117D01*
X9510539Y-19314117D02*
X9529587Y-19285546D01*
X9529587Y-19285546D02*
X9539111Y-19266498D01*
X9539111Y-19266498D02*
X9548635Y-19237927D01*
X9548635Y-19237927D02*
X9558158Y-19190308D01*
X9558158Y-19190308D02*
X9558158Y-19152213D01*
X9558158Y-19152213D02*
X9548635Y-19104594D01*
X9548635Y-19104594D02*
X9539111Y-19076022D01*
X9539111Y-19076022D02*
X9529587Y-19056975D01*
X9529587Y-19056975D02*
X9510539Y-19028403D01*
X9510539Y-19028403D02*
X9501016Y-19018879D01*
X2645000Y-19375967D02*
X2645000Y-19575967D01*
X2545000Y-19475967D02*
X2745000Y-19475967D01*
X2986729Y-19367451D02*
X3110539Y-19367451D01*
X3110539Y-19367451D02*
X3043872Y-19443641D01*
X3043872Y-19443641D02*
X3072443Y-19443641D01*
X3072443Y-19443641D02*
X3091491Y-19453165D01*
X3091491Y-19453165D02*
X3101015Y-19462689D01*
X3101015Y-19462689D02*
X3110539Y-19481737D01*
X3110539Y-19481737D02*
X3110539Y-19529356D01*
X3110539Y-19529356D02*
X3101015Y-19548403D01*
X3101015Y-19548403D02*
X3091491Y-19557927D01*
X3091491Y-19557927D02*
X3072443Y-19567451D01*
X3072443Y-19567451D02*
X3015301Y-19567451D01*
X3015301Y-19567451D02*
X2996253Y-19557927D01*
X2996253Y-19557927D02*
X2986729Y-19548403D01*
X3196253Y-19548403D02*
X3205777Y-19557927D01*
X3205777Y-19557927D02*
X3196253Y-19567451D01*
X3196253Y-19567451D02*
X3186729Y-19557927D01*
X3186729Y-19557927D02*
X3196253Y-19548403D01*
X3196253Y-19548403D02*
X3196253Y-19567451D01*
X3281967Y-19386498D02*
X3291491Y-19376975D01*
X3291491Y-19376975D02*
X3310539Y-19367451D01*
X3310539Y-19367451D02*
X3358158Y-19367451D01*
X3358158Y-19367451D02*
X3377205Y-19376975D01*
X3377205Y-19376975D02*
X3386729Y-19386498D01*
X3386729Y-19386498D02*
X3396253Y-19405546D01*
X3396253Y-19405546D02*
X3396253Y-19424594D01*
X3396253Y-19424594D02*
X3386729Y-19453165D01*
X3386729Y-19453165D02*
X3272443Y-19567451D01*
X3272443Y-19567451D02*
X3396253Y-19567451D01*
X3520062Y-19367451D02*
X3539110Y-19367451D01*
X3539110Y-19367451D02*
X3558158Y-19376975D01*
X3558158Y-19376975D02*
X3567682Y-19386498D01*
X3567682Y-19386498D02*
X3577205Y-19405546D01*
X3577205Y-19405546D02*
X3586729Y-19443641D01*
X3586729Y-19443641D02*
X3586729Y-19491260D01*
X3586729Y-19491260D02*
X3577205Y-19529356D01*
X3577205Y-19529356D02*
X3567682Y-19548403D01*
X3567682Y-19548403D02*
X3558158Y-19557927D01*
X3558158Y-19557927D02*
X3539110Y-19567451D01*
X3539110Y-19567451D02*
X3520062Y-19567451D01*
X3520062Y-19567451D02*
X3501015Y-19557927D01*
X3501015Y-19557927D02*
X3491491Y-19548403D01*
X3491491Y-19548403D02*
X3481967Y-19529356D01*
X3481967Y-19529356D02*
X3472443Y-19491260D01*
X3472443Y-19491260D02*
X3472443Y-19443641D01*
X3472443Y-19443641D02*
X3481967Y-19405546D01*
X3481967Y-19405546D02*
X3491491Y-19386498D01*
X3491491Y-19386498D02*
X3501015Y-19376975D01*
X3501015Y-19376975D02*
X3520062Y-19367451D01*
X3710539Y-19367451D02*
X3729586Y-19367451D01*
X3729586Y-19367451D02*
X3748634Y-19376975D01*
X3748634Y-19376975D02*
X3758158Y-19386498D01*
X3758158Y-19386498D02*
X3767682Y-19405546D01*
X3767682Y-19405546D02*
X3777205Y-19443641D01*
X3777205Y-19443641D02*
X3777205Y-19491260D01*
X3777205Y-19491260D02*
X3767682Y-19529356D01*
X3767682Y-19529356D02*
X3758158Y-19548403D01*
X3758158Y-19548403D02*
X3748634Y-19557927D01*
X3748634Y-19557927D02*
X3729586Y-19567451D01*
X3729586Y-19567451D02*
X3710539Y-19567451D01*
X3710539Y-19567451D02*
X3691491Y-19557927D01*
X3691491Y-19557927D02*
X3681967Y-19548403D01*
X3681967Y-19548403D02*
X3672443Y-19529356D01*
X3672443Y-19529356D02*
X3662920Y-19491260D01*
X3662920Y-19491260D02*
X3662920Y-19443641D01*
X3662920Y-19443641D02*
X3672443Y-19405546D01*
X3672443Y-19405546D02*
X3681967Y-19386498D01*
X3681967Y-19386498D02*
X3691491Y-19376975D01*
X3691491Y-19376975D02*
X3710539Y-19367451D01*
X3862920Y-19567451D02*
X3862920Y-19434117D01*
X3862920Y-19453165D02*
X3872443Y-19443641D01*
X3872443Y-19443641D02*
X3891491Y-19434117D01*
X3891491Y-19434117D02*
X3920063Y-19434117D01*
X3920063Y-19434117D02*
X3939110Y-19443641D01*
X3939110Y-19443641D02*
X3948634Y-19462689D01*
X3948634Y-19462689D02*
X3948634Y-19567451D01*
X3948634Y-19462689D02*
X3958158Y-19443641D01*
X3958158Y-19443641D02*
X3977205Y-19434117D01*
X3977205Y-19434117D02*
X4005777Y-19434117D01*
X4005777Y-19434117D02*
X4024824Y-19443641D01*
X4024824Y-19443641D02*
X4034348Y-19462689D01*
X4034348Y-19462689D02*
X4034348Y-19567451D01*
X4129586Y-19567451D02*
X4129586Y-19434117D01*
X4129586Y-19453165D02*
X4139110Y-19443641D01*
X4139110Y-19443641D02*
X4158158Y-19434117D01*
X4158158Y-19434117D02*
X4186729Y-19434117D01*
X4186729Y-19434117D02*
X4205777Y-19443641D01*
X4205777Y-19443641D02*
X4215301Y-19462689D01*
X4215301Y-19462689D02*
X4215301Y-19567451D01*
X4215301Y-19462689D02*
X4224825Y-19443641D01*
X4224825Y-19443641D02*
X4243872Y-19434117D01*
X4243872Y-19434117D02*
X4272444Y-19434117D01*
X4272444Y-19434117D02*
X4291491Y-19443641D01*
X4291491Y-19443641D02*
X4301015Y-19462689D01*
X4301015Y-19462689D02*
X4301015Y-19567451D01*
X4691491Y-19357927D02*
X4520063Y-19615070D01*
X4948634Y-19367451D02*
X4967682Y-19367451D01*
X4967682Y-19367451D02*
X4986729Y-19376975D01*
X4986729Y-19376975D02*
X4996253Y-19386498D01*
X4996253Y-19386498D02*
X5005777Y-19405546D01*
X5005777Y-19405546D02*
X5015301Y-19443641D01*
X5015301Y-19443641D02*
X5015301Y-19491260D01*
X5015301Y-19491260D02*
X5005777Y-19529356D01*
X5005777Y-19529356D02*
X4996253Y-19548403D01*
X4996253Y-19548403D02*
X4986729Y-19557927D01*
X4986729Y-19557927D02*
X4967682Y-19567451D01*
X4967682Y-19567451D02*
X4948634Y-19567451D01*
X4948634Y-19567451D02*
X4929587Y-19557927D01*
X4929587Y-19557927D02*
X4920063Y-19548403D01*
X4920063Y-19548403D02*
X4910539Y-19529356D01*
X4910539Y-19529356D02*
X4901015Y-19491260D01*
X4901015Y-19491260D02*
X4901015Y-19443641D01*
X4901015Y-19443641D02*
X4910539Y-19405546D01*
X4910539Y-19405546D02*
X4920063Y-19386498D01*
X4920063Y-19386498D02*
X4929587Y-19376975D01*
X4929587Y-19376975D02*
X4948634Y-19367451D01*
X5101015Y-19548403D02*
X5110539Y-19557927D01*
X5110539Y-19557927D02*
X5101015Y-19567451D01*
X5101015Y-19567451D02*
X5091491Y-19557927D01*
X5091491Y-19557927D02*
X5101015Y-19548403D01*
X5101015Y-19548403D02*
X5101015Y-19567451D01*
X5301015Y-19567451D02*
X5186729Y-19567451D01*
X5243872Y-19567451D02*
X5243872Y-19367451D01*
X5243872Y-19367451D02*
X5224825Y-19396022D01*
X5224825Y-19396022D02*
X5205777Y-19415070D01*
X5205777Y-19415070D02*
X5186729Y-19424594D01*
X5377206Y-19386498D02*
X5386729Y-19376975D01*
X5386729Y-19376975D02*
X5405777Y-19367451D01*
X5405777Y-19367451D02*
X5453396Y-19367451D01*
X5453396Y-19367451D02*
X5472444Y-19376975D01*
X5472444Y-19376975D02*
X5481968Y-19386498D01*
X5481968Y-19386498D02*
X5491491Y-19405546D01*
X5491491Y-19405546D02*
X5491491Y-19424594D01*
X5491491Y-19424594D02*
X5481968Y-19453165D01*
X5481968Y-19453165D02*
X5367682Y-19567451D01*
X5367682Y-19567451D02*
X5491491Y-19567451D01*
X5662920Y-19367451D02*
X5624825Y-19367451D01*
X5624825Y-19367451D02*
X5605777Y-19376975D01*
X5605777Y-19376975D02*
X5596253Y-19386498D01*
X5596253Y-19386498D02*
X5577206Y-19415070D01*
X5577206Y-19415070D02*
X5567682Y-19453165D01*
X5567682Y-19453165D02*
X5567682Y-19529356D01*
X5567682Y-19529356D02*
X5577206Y-19548403D01*
X5577206Y-19548403D02*
X5586729Y-19557927D01*
X5586729Y-19557927D02*
X5605777Y-19567451D01*
X5605777Y-19567451D02*
X5643872Y-19567451D01*
X5643872Y-19567451D02*
X5662920Y-19557927D01*
X5662920Y-19557927D02*
X5672444Y-19548403D01*
X5672444Y-19548403D02*
X5681967Y-19529356D01*
X5681967Y-19529356D02*
X5681967Y-19481737D01*
X5681967Y-19481737D02*
X5672444Y-19462689D01*
X5672444Y-19462689D02*
X5662920Y-19453165D01*
X5662920Y-19453165D02*
X5643872Y-19443641D01*
X5643872Y-19443641D02*
X5605777Y-19443641D01*
X5605777Y-19443641D02*
X5586729Y-19453165D01*
X5586729Y-19453165D02*
X5577206Y-19462689D01*
X5577206Y-19462689D02*
X5567682Y-19481737D01*
X5805777Y-19367451D02*
X5824825Y-19367451D01*
X5824825Y-19367451D02*
X5843872Y-19376975D01*
X5843872Y-19376975D02*
X5853396Y-19386498D01*
X5853396Y-19386498D02*
X5862920Y-19405546D01*
X5862920Y-19405546D02*
X5872444Y-19443641D01*
X5872444Y-19443641D02*
X5872444Y-19491260D01*
X5872444Y-19491260D02*
X5862920Y-19529356D01*
X5862920Y-19529356D02*
X5853396Y-19548403D01*
X5853396Y-19548403D02*
X5843872Y-19557927D01*
X5843872Y-19557927D02*
X5824825Y-19567451D01*
X5824825Y-19567451D02*
X5805777Y-19567451D01*
X5805777Y-19567451D02*
X5786729Y-19557927D01*
X5786729Y-19557927D02*
X5777206Y-19548403D01*
X5777206Y-19548403D02*
X5767682Y-19529356D01*
X5767682Y-19529356D02*
X5758158Y-19491260D01*
X5758158Y-19491260D02*
X5758158Y-19443641D01*
X5758158Y-19443641D02*
X5767682Y-19405546D01*
X5767682Y-19405546D02*
X5777206Y-19386498D01*
X5777206Y-19386498D02*
X5786729Y-19376975D01*
X5786729Y-19376975D02*
X5805777Y-19367451D01*
X5948634Y-19367451D02*
X5948634Y-19405546D01*
X6024825Y-19367451D02*
X6024825Y-19405546D01*
X6320063Y-19643641D02*
X6310539Y-19634117D01*
X6310539Y-19634117D02*
X6291491Y-19605546D01*
X6291491Y-19605546D02*
X6281968Y-19586498D01*
X6281968Y-19586498D02*
X6272444Y-19557927D01*
X6272444Y-19557927D02*
X6262920Y-19510308D01*
X6262920Y-19510308D02*
X6262920Y-19472213D01*
X6262920Y-19472213D02*
X6272444Y-19424594D01*
X6272444Y-19424594D02*
X6281968Y-19396022D01*
X6281968Y-19396022D02*
X6291491Y-19376975D01*
X6291491Y-19376975D02*
X6310539Y-19348403D01*
X6310539Y-19348403D02*
X6320063Y-19338879D01*
X6481968Y-19367451D02*
X6443872Y-19367451D01*
X6443872Y-19367451D02*
X6424825Y-19376975D01*
X6424825Y-19376975D02*
X6415301Y-19386498D01*
X6415301Y-19386498D02*
X6396253Y-19415070D01*
X6396253Y-19415070D02*
X6386729Y-19453165D01*
X6386729Y-19453165D02*
X6386729Y-19529356D01*
X6386729Y-19529356D02*
X6396253Y-19548403D01*
X6396253Y-19548403D02*
X6405777Y-19557927D01*
X6405777Y-19557927D02*
X6424825Y-19567451D01*
X6424825Y-19567451D02*
X6462920Y-19567451D01*
X6462920Y-19567451D02*
X6481968Y-19557927D01*
X6481968Y-19557927D02*
X6491491Y-19548403D01*
X6491491Y-19548403D02*
X6501015Y-19529356D01*
X6501015Y-19529356D02*
X6501015Y-19481737D01*
X6501015Y-19481737D02*
X6491491Y-19462689D01*
X6491491Y-19462689D02*
X6481968Y-19453165D01*
X6481968Y-19453165D02*
X6462920Y-19443641D01*
X6462920Y-19443641D02*
X6424825Y-19443641D01*
X6424825Y-19443641D02*
X6405777Y-19453165D01*
X6405777Y-19453165D02*
X6396253Y-19462689D01*
X6396253Y-19462689D02*
X6386729Y-19481737D01*
X6739110Y-19567451D02*
X6739110Y-19367451D01*
X6824825Y-19567451D02*
X6824825Y-19462689D01*
X6824825Y-19462689D02*
X6815301Y-19443641D01*
X6815301Y-19443641D02*
X6796253Y-19434117D01*
X6796253Y-19434117D02*
X6767682Y-19434117D01*
X6767682Y-19434117D02*
X6748634Y-19443641D01*
X6748634Y-19443641D02*
X6739110Y-19453165D01*
X6948634Y-19567451D02*
X6929587Y-19557927D01*
X6929587Y-19557927D02*
X6920063Y-19548403D01*
X6920063Y-19548403D02*
X6910539Y-19529356D01*
X6910539Y-19529356D02*
X6910539Y-19472213D01*
X6910539Y-19472213D02*
X6920063Y-19453165D01*
X6920063Y-19453165D02*
X6929587Y-19443641D01*
X6929587Y-19443641D02*
X6948634Y-19434117D01*
X6948634Y-19434117D02*
X6977206Y-19434117D01*
X6977206Y-19434117D02*
X6996253Y-19443641D01*
X6996253Y-19443641D02*
X7005777Y-19453165D01*
X7005777Y-19453165D02*
X7015301Y-19472213D01*
X7015301Y-19472213D02*
X7015301Y-19529356D01*
X7015301Y-19529356D02*
X7005777Y-19548403D01*
X7005777Y-19548403D02*
X6996253Y-19557927D01*
X6996253Y-19557927D02*
X6977206Y-19567451D01*
X6977206Y-19567451D02*
X6948634Y-19567451D01*
X7129587Y-19567451D02*
X7110539Y-19557927D01*
X7110539Y-19557927D02*
X7101015Y-19538879D01*
X7101015Y-19538879D02*
X7101015Y-19367451D01*
X7281968Y-19557927D02*
X7262920Y-19567451D01*
X7262920Y-19567451D02*
X7224825Y-19567451D01*
X7224825Y-19567451D02*
X7205777Y-19557927D01*
X7205777Y-19557927D02*
X7196253Y-19538879D01*
X7196253Y-19538879D02*
X7196253Y-19462689D01*
X7196253Y-19462689D02*
X7205777Y-19443641D01*
X7205777Y-19443641D02*
X7224825Y-19434117D01*
X7224825Y-19434117D02*
X7262920Y-19434117D01*
X7262920Y-19434117D02*
X7281968Y-19443641D01*
X7281968Y-19443641D02*
X7291491Y-19462689D01*
X7291491Y-19462689D02*
X7291491Y-19481737D01*
X7291491Y-19481737D02*
X7196253Y-19500784D01*
X7367682Y-19557927D02*
X7386730Y-19567451D01*
X7386730Y-19567451D02*
X7424825Y-19567451D01*
X7424825Y-19567451D02*
X7443872Y-19557927D01*
X7443872Y-19557927D02*
X7453396Y-19538879D01*
X7453396Y-19538879D02*
X7453396Y-19529356D01*
X7453396Y-19529356D02*
X7443872Y-19510308D01*
X7443872Y-19510308D02*
X7424825Y-19500784D01*
X7424825Y-19500784D02*
X7396253Y-19500784D01*
X7396253Y-19500784D02*
X7377206Y-19491260D01*
X7377206Y-19491260D02*
X7367682Y-19472213D01*
X7367682Y-19472213D02*
X7367682Y-19462689D01*
X7367682Y-19462689D02*
X7377206Y-19443641D01*
X7377206Y-19443641D02*
X7396253Y-19434117D01*
X7396253Y-19434117D02*
X7424825Y-19434117D01*
X7424825Y-19434117D02*
X7443872Y-19443641D01*
X7520063Y-19643641D02*
X7529587Y-19634117D01*
X7529587Y-19634117D02*
X7548634Y-19605546D01*
X7548634Y-19605546D02*
X7558158Y-19586498D01*
X7558158Y-19586498D02*
X7567682Y-19557927D01*
X7567682Y-19557927D02*
X7577206Y-19510308D01*
X7577206Y-19510308D02*
X7577206Y-19472213D01*
X7577206Y-19472213D02*
X7567682Y-19424594D01*
X7567682Y-19424594D02*
X7558158Y-19396022D01*
X7558158Y-19396022D02*
X7548634Y-19376975D01*
X7548634Y-19376975D02*
X7529587Y-19348403D01*
X7529587Y-19348403D02*
X7520063Y-19338879D01*
X7881968Y-19643641D02*
X7872444Y-19634117D01*
X7872444Y-19634117D02*
X7853396Y-19605546D01*
X7853396Y-19605546D02*
X7843872Y-19586498D01*
X7843872Y-19586498D02*
X7834349Y-19557927D01*
X7834349Y-19557927D02*
X7824825Y-19510308D01*
X7824825Y-19510308D02*
X7824825Y-19472213D01*
X7824825Y-19472213D02*
X7834349Y-19424594D01*
X7834349Y-19424594D02*
X7843872Y-19396022D01*
X7843872Y-19396022D02*
X7853396Y-19376975D01*
X7853396Y-19376975D02*
X7872444Y-19348403D01*
X7872444Y-19348403D02*
X7881968Y-19338879D01*
X7958158Y-19434117D02*
X7958158Y-19567451D01*
X7958158Y-19453165D02*
X7967682Y-19443641D01*
X7967682Y-19443641D02*
X7986730Y-19434117D01*
X7986730Y-19434117D02*
X8015301Y-19434117D01*
X8015301Y-19434117D02*
X8034349Y-19443641D01*
X8034349Y-19443641D02*
X8043872Y-19462689D01*
X8043872Y-19462689D02*
X8043872Y-19567451D01*
X8167682Y-19567451D02*
X8148634Y-19557927D01*
X8148634Y-19557927D02*
X8139111Y-19548403D01*
X8139111Y-19548403D02*
X8129587Y-19529356D01*
X8129587Y-19529356D02*
X8129587Y-19472213D01*
X8129587Y-19472213D02*
X8139111Y-19453165D01*
X8139111Y-19453165D02*
X8148634Y-19443641D01*
X8148634Y-19443641D02*
X8167682Y-19434117D01*
X8167682Y-19434117D02*
X8196253Y-19434117D01*
X8196253Y-19434117D02*
X8215301Y-19443641D01*
X8215301Y-19443641D02*
X8224825Y-19453165D01*
X8224825Y-19453165D02*
X8234349Y-19472213D01*
X8234349Y-19472213D02*
X8234349Y-19529356D01*
X8234349Y-19529356D02*
X8224825Y-19548403D01*
X8224825Y-19548403D02*
X8215301Y-19557927D01*
X8215301Y-19557927D02*
X8196253Y-19567451D01*
X8196253Y-19567451D02*
X8167682Y-19567451D01*
X8291492Y-19434117D02*
X8367682Y-19434117D01*
X8320063Y-19367451D02*
X8320063Y-19538879D01*
X8320063Y-19538879D02*
X8329587Y-19557927D01*
X8329587Y-19557927D02*
X8348634Y-19567451D01*
X8348634Y-19567451D02*
X8367682Y-19567451D01*
X8586730Y-19434117D02*
X8586730Y-19634117D01*
X8586730Y-19443641D02*
X8605777Y-19434117D01*
X8605777Y-19434117D02*
X8643873Y-19434117D01*
X8643873Y-19434117D02*
X8662920Y-19443641D01*
X8662920Y-19443641D02*
X8672444Y-19453165D01*
X8672444Y-19453165D02*
X8681968Y-19472213D01*
X8681968Y-19472213D02*
X8681968Y-19529356D01*
X8681968Y-19529356D02*
X8672444Y-19548403D01*
X8672444Y-19548403D02*
X8662920Y-19557927D01*
X8662920Y-19557927D02*
X8643873Y-19567451D01*
X8643873Y-19567451D02*
X8605777Y-19567451D01*
X8605777Y-19567451D02*
X8586730Y-19557927D01*
X8796254Y-19567451D02*
X8777206Y-19557927D01*
X8777206Y-19557927D02*
X8767682Y-19538879D01*
X8767682Y-19538879D02*
X8767682Y-19367451D01*
X8958158Y-19567451D02*
X8958158Y-19462689D01*
X8958158Y-19462689D02*
X8948635Y-19443641D01*
X8948635Y-19443641D02*
X8929587Y-19434117D01*
X8929587Y-19434117D02*
X8891492Y-19434117D01*
X8891492Y-19434117D02*
X8872444Y-19443641D01*
X8958158Y-19557927D02*
X8939111Y-19567451D01*
X8939111Y-19567451D02*
X8891492Y-19567451D01*
X8891492Y-19567451D02*
X8872444Y-19557927D01*
X8872444Y-19557927D02*
X8862920Y-19538879D01*
X8862920Y-19538879D02*
X8862920Y-19519832D01*
X8862920Y-19519832D02*
X8872444Y-19500784D01*
X8872444Y-19500784D02*
X8891492Y-19491260D01*
X8891492Y-19491260D02*
X8939111Y-19491260D01*
X8939111Y-19491260D02*
X8958158Y-19481737D01*
X9024825Y-19434117D02*
X9101015Y-19434117D01*
X9053396Y-19367451D02*
X9053396Y-19538879D01*
X9053396Y-19538879D02*
X9062920Y-19557927D01*
X9062920Y-19557927D02*
X9081968Y-19567451D01*
X9081968Y-19567451D02*
X9101015Y-19567451D01*
X9243873Y-19557927D02*
X9224825Y-19567451D01*
X9224825Y-19567451D02*
X9186730Y-19567451D01*
X9186730Y-19567451D02*
X9167682Y-19557927D01*
X9167682Y-19557927D02*
X9158158Y-19538879D01*
X9158158Y-19538879D02*
X9158158Y-19462689D01*
X9158158Y-19462689D02*
X9167682Y-19443641D01*
X9167682Y-19443641D02*
X9186730Y-19434117D01*
X9186730Y-19434117D02*
X9224825Y-19434117D01*
X9224825Y-19434117D02*
X9243873Y-19443641D01*
X9243873Y-19443641D02*
X9253396Y-19462689D01*
X9253396Y-19462689D02*
X9253396Y-19481737D01*
X9253396Y-19481737D02*
X9158158Y-19500784D01*
X9424825Y-19567451D02*
X9424825Y-19367451D01*
X9424825Y-19557927D02*
X9405777Y-19567451D01*
X9405777Y-19567451D02*
X9367682Y-19567451D01*
X9367682Y-19567451D02*
X9348635Y-19557927D01*
X9348635Y-19557927D02*
X9339111Y-19548403D01*
X9339111Y-19548403D02*
X9329587Y-19529356D01*
X9329587Y-19529356D02*
X9329587Y-19472213D01*
X9329587Y-19472213D02*
X9339111Y-19453165D01*
X9339111Y-19453165D02*
X9348635Y-19443641D01*
X9348635Y-19443641D02*
X9367682Y-19434117D01*
X9367682Y-19434117D02*
X9405777Y-19434117D01*
X9405777Y-19434117D02*
X9424825Y-19443641D01*
X9501016Y-19643641D02*
X9510539Y-19634117D01*
X9510539Y-19634117D02*
X9529587Y-19605546D01*
X9529587Y-19605546D02*
X9539111Y-19586498D01*
X9539111Y-19586498D02*
X9548635Y-19557927D01*
X9548635Y-19557927D02*
X9558158Y-19510308D01*
X9558158Y-19510308D02*
X9558158Y-19472213D01*
X9558158Y-19472213D02*
X9548635Y-19424594D01*
X9548635Y-19424594D02*
X9539111Y-19396022D01*
X9539111Y-19396022D02*
X9529587Y-19376975D01*
X9529587Y-19376975D02*
X9510539Y-19348403D01*
X9510539Y-19348403D02*
X9501016Y-19338879D01*
M02*
