G04 #@! TF.GenerationSoftware,KiCad,Pcbnew,9.0.7*
G04 #@! TF.CreationDate,2026-04-12T15:48:31+03:00*
G04 #@! TF.ProjectId,nanosun-pcb,6e616e6f-7375-46e2-9d70-63622e6b6963,v1*
G04 #@! TF.SameCoordinates,Original*
G04 #@! TF.FileFunction,Legend,Bot*
G04 #@! TF.FilePolarity,Positive*
%FSLAX46Y46*%
G04 Gerber Fmt 4.6, Leading zero omitted, Abs format (unit mm)*
G04 Created by KiCad (PCBNEW 9.0.7) date 2026-04-12 15:48:31*
%MOMM*%
%LPD*%
G01*
G04 APERTURE LIST*
G04 Aperture macros list*
%AMRoundRect*
0 Rectangle with rounded corners*
0 $1 Rounding radius*
0 $2 $3 $4 $5 $6 $7 $8 $9 X,Y pos of 4 corners*
0 Add a 4 corners polygon primitive as box body*
4,1,4,$2,$3,$4,$5,$6,$7,$8,$9,$2,$3,0*
0 Add four circle primitives for the rounded corners*
1,1,$1+$1,$2,$3*
1,1,$1+$1,$4,$5*
1,1,$1+$1,$6,$7*
1,1,$1+$1,$8,$9*
0 Add four rect primitives between the rounded corners*
20,1,$1+$1,$2,$3,$4,$5,0*
20,1,$1+$1,$4,$5,$6,$7,0*
20,1,$1+$1,$6,$7,$8,$9,0*
20,1,$1+$1,$8,$9,$2,$3,0*%
G04 Aperture macros list end*
%ADD10C,0.100000*%
%ADD11C,1.000000*%
%ADD12C,0.125000*%
%ADD13C,0.150000*%
%ADD14C,0.120000*%
%ADD15C,2.500000*%
%ADD16C,3.200000*%
%ADD17C,1.600000*%
%ADD18RoundRect,0.250000X0.550000X0.550000X-0.550000X0.550000X-0.550000X-0.550000X0.550000X-0.550000X0*%
%ADD19R,5.000000X3.000000*%
%ADD20R,4.000000X4.000000*%
G04 APERTURE END LIST*
D10*
X110000000Y-17719670D02*
X110000000Y-19219670D01*
D11*
X110000000Y-103500000D02*
X110000000Y-102000000D01*
X111250000Y-100000000D02*
X117250000Y-100000000D01*
X110000000Y-98750000D02*
X110000000Y-95750000D01*
D10*
X192250000Y-99969670D02*
X188500000Y-99969670D01*
D11*
X112530330Y-102530330D02*
X111469670Y-101469670D01*
D10*
X110000000Y-182219670D02*
X110000000Y-180719670D01*
X27750000Y-99969670D02*
X30000000Y-99969670D01*
D11*
X107469670Y-102530330D02*
X108530330Y-101469670D01*
X109250000Y-99000000D02*
X107128680Y-96878680D01*
X108750000Y-100000000D02*
X102750000Y-100000000D01*
X108750000Y-100000000D02*
G75*
G02*
X111250000Y-100000000I1250000J0D01*
G01*
X110750000Y-99000000D02*
X112871320Y-96878680D01*
D12*
X120357143Y-105663884D02*
X120452382Y-105616265D01*
X120452382Y-105616265D02*
X120642858Y-105616265D01*
X120642858Y-105616265D02*
X120738096Y-105663884D01*
X120738096Y-105663884D02*
X120833334Y-105759122D01*
X120833334Y-105759122D02*
X120880953Y-105854360D01*
X120880953Y-105854360D02*
X120880953Y-106044836D01*
X120880953Y-106044836D02*
X120833334Y-106140074D01*
X120833334Y-106140074D02*
X120738096Y-106235312D01*
X120738096Y-106235312D02*
X120642858Y-106282931D01*
X120642858Y-106282931D02*
X120452382Y-106282931D01*
X120452382Y-106282931D02*
X120357143Y-106235312D01*
X120547620Y-105282931D02*
X120785715Y-105330550D01*
X120785715Y-105330550D02*
X121023810Y-105473408D01*
X121023810Y-105473408D02*
X121166667Y-105711503D01*
X121166667Y-105711503D02*
X121214286Y-105949598D01*
X121214286Y-105949598D02*
X121166667Y-106187693D01*
X121166667Y-106187693D02*
X121023810Y-106425789D01*
X121023810Y-106425789D02*
X120785715Y-106568646D01*
X120785715Y-106568646D02*
X120547620Y-106616265D01*
X120547620Y-106616265D02*
X120309524Y-106568646D01*
X120309524Y-106568646D02*
X120071429Y-106425789D01*
X120071429Y-106425789D02*
X119928572Y-106187693D01*
X119928572Y-106187693D02*
X119880953Y-105949598D01*
X119880953Y-105949598D02*
X119928572Y-105711503D01*
X119928572Y-105711503D02*
X120071429Y-105473408D01*
X120071429Y-105473408D02*
X120309524Y-105330550D01*
X120309524Y-105330550D02*
X120547620Y-105282931D01*
X118738095Y-106378170D02*
X118595238Y-106425789D01*
X118595238Y-106425789D02*
X118357143Y-106425789D01*
X118357143Y-106425789D02*
X118261905Y-106378170D01*
X118261905Y-106378170D02*
X118214286Y-106330550D01*
X118214286Y-106330550D02*
X118166667Y-106235312D01*
X118166667Y-106235312D02*
X118166667Y-106140074D01*
X118166667Y-106140074D02*
X118214286Y-106044836D01*
X118214286Y-106044836D02*
X118261905Y-105997217D01*
X118261905Y-105997217D02*
X118357143Y-105949598D01*
X118357143Y-105949598D02*
X118547619Y-105901979D01*
X118547619Y-105901979D02*
X118642857Y-105854360D01*
X118642857Y-105854360D02*
X118690476Y-105806741D01*
X118690476Y-105806741D02*
X118738095Y-105711503D01*
X118738095Y-105711503D02*
X118738095Y-105616265D01*
X118738095Y-105616265D02*
X118690476Y-105521027D01*
X118690476Y-105521027D02*
X118642857Y-105473408D01*
X118642857Y-105473408D02*
X118547619Y-105425789D01*
X118547619Y-105425789D02*
X118309524Y-105425789D01*
X118309524Y-105425789D02*
X118166667Y-105473408D01*
X117738095Y-106425789D02*
X117738095Y-105759122D01*
X117738095Y-105425789D02*
X117785714Y-105473408D01*
X117785714Y-105473408D02*
X117738095Y-105521027D01*
X117738095Y-105521027D02*
X117690476Y-105473408D01*
X117690476Y-105473408D02*
X117738095Y-105425789D01*
X117738095Y-105425789D02*
X117738095Y-105521027D01*
X117261905Y-106425789D02*
X117261905Y-105759122D01*
X117261905Y-105854360D02*
X117214286Y-105806741D01*
X117214286Y-105806741D02*
X117119048Y-105759122D01*
X117119048Y-105759122D02*
X116976191Y-105759122D01*
X116976191Y-105759122D02*
X116880953Y-105806741D01*
X116880953Y-105806741D02*
X116833334Y-105901979D01*
X116833334Y-105901979D02*
X116833334Y-106425789D01*
X116833334Y-105901979D02*
X116785715Y-105806741D01*
X116785715Y-105806741D02*
X116690477Y-105759122D01*
X116690477Y-105759122D02*
X116547620Y-105759122D01*
X116547620Y-105759122D02*
X116452381Y-105806741D01*
X116452381Y-105806741D02*
X116404762Y-105901979D01*
X116404762Y-105901979D02*
X116404762Y-106425789D01*
X115785715Y-106425789D02*
X115880953Y-106378170D01*
X115880953Y-106378170D02*
X115928572Y-106330550D01*
X115928572Y-106330550D02*
X115976191Y-106235312D01*
X115976191Y-106235312D02*
X115976191Y-105949598D01*
X115976191Y-105949598D02*
X115928572Y-105854360D01*
X115928572Y-105854360D02*
X115880953Y-105806741D01*
X115880953Y-105806741D02*
X115785715Y-105759122D01*
X115785715Y-105759122D02*
X115642858Y-105759122D01*
X115642858Y-105759122D02*
X115547620Y-105806741D01*
X115547620Y-105806741D02*
X115500001Y-105854360D01*
X115500001Y-105854360D02*
X115452382Y-105949598D01*
X115452382Y-105949598D02*
X115452382Y-106235312D01*
X115452382Y-106235312D02*
X115500001Y-106330550D01*
X115500001Y-106330550D02*
X115547620Y-106378170D01*
X115547620Y-106378170D02*
X115642858Y-106425789D01*
X115642858Y-106425789D02*
X115785715Y-106425789D01*
X115023810Y-105759122D02*
X115023810Y-106425789D01*
X115023810Y-105854360D02*
X114976191Y-105806741D01*
X114976191Y-105806741D02*
X114880953Y-105759122D01*
X114880953Y-105759122D02*
X114738096Y-105759122D01*
X114738096Y-105759122D02*
X114642858Y-105806741D01*
X114642858Y-105806741D02*
X114595239Y-105901979D01*
X114595239Y-105901979D02*
X114595239Y-106425789D01*
X113690477Y-106425789D02*
X113690477Y-105901979D01*
X113690477Y-105901979D02*
X113738096Y-105806741D01*
X113738096Y-105806741D02*
X113833334Y-105759122D01*
X113833334Y-105759122D02*
X114023810Y-105759122D01*
X114023810Y-105759122D02*
X114119048Y-105806741D01*
X113690477Y-106378170D02*
X113785715Y-106425789D01*
X113785715Y-106425789D02*
X114023810Y-106425789D01*
X114023810Y-106425789D02*
X114119048Y-106378170D01*
X114119048Y-106378170D02*
X114166667Y-106282931D01*
X114166667Y-106282931D02*
X114166667Y-106187693D01*
X114166667Y-106187693D02*
X114119048Y-106092455D01*
X114119048Y-106092455D02*
X114023810Y-106044836D01*
X114023810Y-106044836D02*
X113785715Y-106044836D01*
X113785715Y-106044836D02*
X113690477Y-105997217D01*
X113261905Y-106378170D02*
X113166667Y-106425789D01*
X113166667Y-106425789D02*
X112976191Y-106425789D01*
X112976191Y-106425789D02*
X112880953Y-106378170D01*
X112880953Y-106378170D02*
X112833334Y-106282931D01*
X112833334Y-106282931D02*
X112833334Y-106235312D01*
X112833334Y-106235312D02*
X112880953Y-106140074D01*
X112880953Y-106140074D02*
X112976191Y-106092455D01*
X112976191Y-106092455D02*
X113119048Y-106092455D01*
X113119048Y-106092455D02*
X113214286Y-106044836D01*
X113214286Y-106044836D02*
X113261905Y-105949598D01*
X113261905Y-105949598D02*
X113261905Y-105901979D01*
X113261905Y-105901979D02*
X113214286Y-105806741D01*
X113214286Y-105806741D02*
X113119048Y-105759122D01*
X113119048Y-105759122D02*
X112976191Y-105759122D01*
X112976191Y-105759122D02*
X112880953Y-105806741D01*
X111690476Y-106378170D02*
X111547619Y-106425789D01*
X111547619Y-106425789D02*
X111309524Y-106425789D01*
X111309524Y-106425789D02*
X111214286Y-106378170D01*
X111214286Y-106378170D02*
X111166667Y-106330550D01*
X111166667Y-106330550D02*
X111119048Y-106235312D01*
X111119048Y-106235312D02*
X111119048Y-106140074D01*
X111119048Y-106140074D02*
X111166667Y-106044836D01*
X111166667Y-106044836D02*
X111214286Y-105997217D01*
X111214286Y-105997217D02*
X111309524Y-105949598D01*
X111309524Y-105949598D02*
X111500000Y-105901979D01*
X111500000Y-105901979D02*
X111595238Y-105854360D01*
X111595238Y-105854360D02*
X111642857Y-105806741D01*
X111642857Y-105806741D02*
X111690476Y-105711503D01*
X111690476Y-105711503D02*
X111690476Y-105616265D01*
X111690476Y-105616265D02*
X111642857Y-105521027D01*
X111642857Y-105521027D02*
X111595238Y-105473408D01*
X111595238Y-105473408D02*
X111500000Y-105425789D01*
X111500000Y-105425789D02*
X111261905Y-105425789D01*
X111261905Y-105425789D02*
X111119048Y-105473408D01*
X110261905Y-106425789D02*
X110261905Y-105901979D01*
X110261905Y-105901979D02*
X110309524Y-105806741D01*
X110309524Y-105806741D02*
X110404762Y-105759122D01*
X110404762Y-105759122D02*
X110595238Y-105759122D01*
X110595238Y-105759122D02*
X110690476Y-105806741D01*
X110261905Y-106378170D02*
X110357143Y-106425789D01*
X110357143Y-106425789D02*
X110595238Y-106425789D01*
X110595238Y-106425789D02*
X110690476Y-106378170D01*
X110690476Y-106378170D02*
X110738095Y-106282931D01*
X110738095Y-106282931D02*
X110738095Y-106187693D01*
X110738095Y-106187693D02*
X110690476Y-106092455D01*
X110690476Y-106092455D02*
X110595238Y-106044836D01*
X110595238Y-106044836D02*
X110357143Y-106044836D01*
X110357143Y-106044836D02*
X110261905Y-105997217D01*
X109785714Y-105759122D02*
X109785714Y-106425789D01*
X109785714Y-105854360D02*
X109738095Y-105806741D01*
X109738095Y-105806741D02*
X109642857Y-105759122D01*
X109642857Y-105759122D02*
X109500000Y-105759122D01*
X109500000Y-105759122D02*
X109404762Y-105806741D01*
X109404762Y-105806741D02*
X109357143Y-105901979D01*
X109357143Y-105901979D02*
X109357143Y-106425789D01*
X108880952Y-106425789D02*
X108880952Y-105425789D01*
X108785714Y-106044836D02*
X108500000Y-106425789D01*
X108500000Y-105759122D02*
X108880952Y-106140074D01*
X107642857Y-106425789D02*
X107642857Y-105901979D01*
X107642857Y-105901979D02*
X107690476Y-105806741D01*
X107690476Y-105806741D02*
X107785714Y-105759122D01*
X107785714Y-105759122D02*
X107976190Y-105759122D01*
X107976190Y-105759122D02*
X108071428Y-105806741D01*
X107642857Y-106378170D02*
X107738095Y-106425789D01*
X107738095Y-106425789D02*
X107976190Y-106425789D01*
X107976190Y-106425789D02*
X108071428Y-106378170D01*
X108071428Y-106378170D02*
X108119047Y-106282931D01*
X108119047Y-106282931D02*
X108119047Y-106187693D01*
X108119047Y-106187693D02*
X108071428Y-106092455D01*
X108071428Y-106092455D02*
X107976190Y-106044836D01*
X107976190Y-106044836D02*
X107738095Y-106044836D01*
X107738095Y-106044836D02*
X107642857Y-105997217D01*
X106738095Y-105759122D02*
X106738095Y-106425789D01*
X107166666Y-105759122D02*
X107166666Y-106282931D01*
X107166666Y-106282931D02*
X107119047Y-106378170D01*
X107119047Y-106378170D02*
X107023809Y-106425789D01*
X107023809Y-106425789D02*
X106880952Y-106425789D01*
X106880952Y-106425789D02*
X106785714Y-106378170D01*
X106785714Y-106378170D02*
X106738095Y-106330550D01*
X106309523Y-106378170D02*
X106214285Y-106425789D01*
X106214285Y-106425789D02*
X106023809Y-106425789D01*
X106023809Y-106425789D02*
X105928571Y-106378170D01*
X105928571Y-106378170D02*
X105880952Y-106282931D01*
X105880952Y-106282931D02*
X105880952Y-106235312D01*
X105880952Y-106235312D02*
X105928571Y-106140074D01*
X105928571Y-106140074D02*
X106023809Y-106092455D01*
X106023809Y-106092455D02*
X106166666Y-106092455D01*
X106166666Y-106092455D02*
X106261904Y-106044836D01*
X106261904Y-106044836D02*
X106309523Y-105949598D01*
X106309523Y-105949598D02*
X106309523Y-105901979D01*
X106309523Y-105901979D02*
X106261904Y-105806741D01*
X106261904Y-105806741D02*
X106166666Y-105759122D01*
X106166666Y-105759122D02*
X106023809Y-105759122D01*
X106023809Y-105759122D02*
X105928571Y-105806741D01*
X105452380Y-106425789D02*
X105452380Y-105425789D01*
X105357142Y-106044836D02*
X105071428Y-106425789D01*
X105071428Y-105759122D02*
X105452380Y-106140074D01*
X104214285Y-106425789D02*
X104214285Y-105901979D01*
X104214285Y-105901979D02*
X104261904Y-105806741D01*
X104261904Y-105806741D02*
X104357142Y-105759122D01*
X104357142Y-105759122D02*
X104547618Y-105759122D01*
X104547618Y-105759122D02*
X104642856Y-105806741D01*
X104214285Y-106378170D02*
X104309523Y-106425789D01*
X104309523Y-106425789D02*
X104547618Y-106425789D01*
X104547618Y-106425789D02*
X104642856Y-106378170D01*
X104642856Y-106378170D02*
X104690475Y-106282931D01*
X104690475Y-106282931D02*
X104690475Y-106187693D01*
X104690475Y-106187693D02*
X104642856Y-106092455D01*
X104642856Y-106092455D02*
X104547618Y-106044836D01*
X104547618Y-106044836D02*
X104309523Y-106044836D01*
X104309523Y-106044836D02*
X104214285Y-105997217D01*
X103785713Y-106378170D02*
X103690475Y-106425789D01*
X103690475Y-106425789D02*
X103499999Y-106425789D01*
X103499999Y-106425789D02*
X103404761Y-106378170D01*
X103404761Y-106378170D02*
X103357142Y-106282931D01*
X103357142Y-106282931D02*
X103357142Y-106235312D01*
X103357142Y-106235312D02*
X103404761Y-106140074D01*
X103404761Y-106140074D02*
X103499999Y-106092455D01*
X103499999Y-106092455D02*
X103642856Y-106092455D01*
X103642856Y-106092455D02*
X103738094Y-106044836D01*
X103738094Y-106044836D02*
X103785713Y-105949598D01*
X103785713Y-105949598D02*
X103785713Y-105901979D01*
X103785713Y-105901979D02*
X103738094Y-105806741D01*
X103738094Y-105806741D02*
X103642856Y-105759122D01*
X103642856Y-105759122D02*
X103499999Y-105759122D01*
X103499999Y-105759122D02*
X103404761Y-105806741D01*
X102214284Y-105521027D02*
X102166665Y-105473408D01*
X102166665Y-105473408D02*
X102071427Y-105425789D01*
X102071427Y-105425789D02*
X101833332Y-105425789D01*
X101833332Y-105425789D02*
X101738094Y-105473408D01*
X101738094Y-105473408D02*
X101690475Y-105521027D01*
X101690475Y-105521027D02*
X101642856Y-105616265D01*
X101642856Y-105616265D02*
X101642856Y-105711503D01*
X101642856Y-105711503D02*
X101690475Y-105854360D01*
X101690475Y-105854360D02*
X102261903Y-106425789D01*
X102261903Y-106425789D02*
X101642856Y-106425789D01*
X101023808Y-105425789D02*
X100928570Y-105425789D01*
X100928570Y-105425789D02*
X100833332Y-105473408D01*
X100833332Y-105473408D02*
X100785713Y-105521027D01*
X100785713Y-105521027D02*
X100738094Y-105616265D01*
X100738094Y-105616265D02*
X100690475Y-105806741D01*
X100690475Y-105806741D02*
X100690475Y-106044836D01*
X100690475Y-106044836D02*
X100738094Y-106235312D01*
X100738094Y-106235312D02*
X100785713Y-106330550D01*
X100785713Y-106330550D02*
X100833332Y-106378170D01*
X100833332Y-106378170D02*
X100928570Y-106425789D01*
X100928570Y-106425789D02*
X101023808Y-106425789D01*
X101023808Y-106425789D02*
X101119046Y-106378170D01*
X101119046Y-106378170D02*
X101166665Y-106330550D01*
X101166665Y-106330550D02*
X101214284Y-106235312D01*
X101214284Y-106235312D02*
X101261903Y-106044836D01*
X101261903Y-106044836D02*
X101261903Y-105806741D01*
X101261903Y-105806741D02*
X101214284Y-105616265D01*
X101214284Y-105616265D02*
X101166665Y-105521027D01*
X101166665Y-105521027D02*
X101119046Y-105473408D01*
X101119046Y-105473408D02*
X101023808Y-105425789D01*
X100309522Y-105521027D02*
X100261903Y-105473408D01*
X100261903Y-105473408D02*
X100166665Y-105425789D01*
X100166665Y-105425789D02*
X99928570Y-105425789D01*
X99928570Y-105425789D02*
X99833332Y-105473408D01*
X99833332Y-105473408D02*
X99785713Y-105521027D01*
X99785713Y-105521027D02*
X99738094Y-105616265D01*
X99738094Y-105616265D02*
X99738094Y-105711503D01*
X99738094Y-105711503D02*
X99785713Y-105854360D01*
X99785713Y-105854360D02*
X100357141Y-106425789D01*
X100357141Y-106425789D02*
X99738094Y-106425789D01*
X98880951Y-105425789D02*
X99071427Y-105425789D01*
X99071427Y-105425789D02*
X99166665Y-105473408D01*
X99166665Y-105473408D02*
X99214284Y-105521027D01*
X99214284Y-105521027D02*
X99309522Y-105663884D01*
X99309522Y-105663884D02*
X99357141Y-105854360D01*
X99357141Y-105854360D02*
X99357141Y-106235312D01*
X99357141Y-106235312D02*
X99309522Y-106330550D01*
X99309522Y-106330550D02*
X99261903Y-106378170D01*
X99261903Y-106378170D02*
X99166665Y-106425789D01*
X99166665Y-106425789D02*
X98976189Y-106425789D01*
X98976189Y-106425789D02*
X98880951Y-106378170D01*
X98880951Y-106378170D02*
X98833332Y-106330550D01*
X98833332Y-106330550D02*
X98785713Y-106235312D01*
X98785713Y-106235312D02*
X98785713Y-105997217D01*
X98785713Y-105997217D02*
X98833332Y-105901979D01*
X98833332Y-105901979D02*
X98880951Y-105854360D01*
X98880951Y-105854360D02*
X98976189Y-105806741D01*
X98976189Y-105806741D02*
X99166665Y-105806741D01*
X99166665Y-105806741D02*
X99261903Y-105854360D01*
X99261903Y-105854360D02*
X99309522Y-105901979D01*
X99309522Y-105901979D02*
X99357141Y-105997217D01*
X116133334Y-93840789D02*
X116133334Y-92840789D01*
X116133334Y-93793170D02*
X116228572Y-93840789D01*
X116228572Y-93840789D02*
X116419048Y-93840789D01*
X116419048Y-93840789D02*
X116514286Y-93793170D01*
X116514286Y-93793170D02*
X116561905Y-93745550D01*
X116561905Y-93745550D02*
X116609524Y-93650312D01*
X116609524Y-93650312D02*
X116609524Y-93364598D01*
X116609524Y-93364598D02*
X116561905Y-93269360D01*
X116561905Y-93269360D02*
X116514286Y-93221741D01*
X116514286Y-93221741D02*
X116419048Y-93174122D01*
X116419048Y-93174122D02*
X116228572Y-93174122D01*
X116228572Y-93174122D02*
X116133334Y-93221741D01*
X115657143Y-93840789D02*
X115657143Y-93174122D01*
X115657143Y-92840789D02*
X115704762Y-92888408D01*
X115704762Y-92888408D02*
X115657143Y-92936027D01*
X115657143Y-92936027D02*
X115609524Y-92888408D01*
X115609524Y-92888408D02*
X115657143Y-92840789D01*
X115657143Y-92840789D02*
X115657143Y-92936027D01*
X114752382Y-93174122D02*
X114752382Y-93983646D01*
X114752382Y-93983646D02*
X114800001Y-94078884D01*
X114800001Y-94078884D02*
X114847620Y-94126503D01*
X114847620Y-94126503D02*
X114942858Y-94174122D01*
X114942858Y-94174122D02*
X115085715Y-94174122D01*
X115085715Y-94174122D02*
X115180953Y-94126503D01*
X114752382Y-93793170D02*
X114847620Y-93840789D01*
X114847620Y-93840789D02*
X115038096Y-93840789D01*
X115038096Y-93840789D02*
X115133334Y-93793170D01*
X115133334Y-93793170D02*
X115180953Y-93745550D01*
X115180953Y-93745550D02*
X115228572Y-93650312D01*
X115228572Y-93650312D02*
X115228572Y-93364598D01*
X115228572Y-93364598D02*
X115180953Y-93269360D01*
X115180953Y-93269360D02*
X115133334Y-93221741D01*
X115133334Y-93221741D02*
X115038096Y-93174122D01*
X115038096Y-93174122D02*
X114847620Y-93174122D01*
X114847620Y-93174122D02*
X114752382Y-93221741D01*
X114276191Y-93840789D02*
X114276191Y-93174122D01*
X114276191Y-92840789D02*
X114323810Y-92888408D01*
X114323810Y-92888408D02*
X114276191Y-92936027D01*
X114276191Y-92936027D02*
X114228572Y-92888408D01*
X114228572Y-92888408D02*
X114276191Y-92840789D01*
X114276191Y-92840789D02*
X114276191Y-92936027D01*
X113942858Y-93174122D02*
X113561906Y-93174122D01*
X113800001Y-92840789D02*
X113800001Y-93697931D01*
X113800001Y-93697931D02*
X113752382Y-93793170D01*
X113752382Y-93793170D02*
X113657144Y-93840789D01*
X113657144Y-93840789D02*
X113561906Y-93840789D01*
X112800001Y-93840789D02*
X112800001Y-93316979D01*
X112800001Y-93316979D02*
X112847620Y-93221741D01*
X112847620Y-93221741D02*
X112942858Y-93174122D01*
X112942858Y-93174122D02*
X113133334Y-93174122D01*
X113133334Y-93174122D02*
X113228572Y-93221741D01*
X112800001Y-93793170D02*
X112895239Y-93840789D01*
X112895239Y-93840789D02*
X113133334Y-93840789D01*
X113133334Y-93840789D02*
X113228572Y-93793170D01*
X113228572Y-93793170D02*
X113276191Y-93697931D01*
X113276191Y-93697931D02*
X113276191Y-93602693D01*
X113276191Y-93602693D02*
X113228572Y-93507455D01*
X113228572Y-93507455D02*
X113133334Y-93459836D01*
X113133334Y-93459836D02*
X112895239Y-93459836D01*
X112895239Y-93459836D02*
X112800001Y-93412217D01*
X112180953Y-93840789D02*
X112276191Y-93793170D01*
X112276191Y-93793170D02*
X112323810Y-93697931D01*
X112323810Y-93697931D02*
X112323810Y-92840789D01*
X111085714Y-93793170D02*
X110990476Y-93840789D01*
X110990476Y-93840789D02*
X110800000Y-93840789D01*
X110800000Y-93840789D02*
X110704762Y-93793170D01*
X110704762Y-93793170D02*
X110657143Y-93697931D01*
X110657143Y-93697931D02*
X110657143Y-93650312D01*
X110657143Y-93650312D02*
X110704762Y-93555074D01*
X110704762Y-93555074D02*
X110800000Y-93507455D01*
X110800000Y-93507455D02*
X110942857Y-93507455D01*
X110942857Y-93507455D02*
X111038095Y-93459836D01*
X111038095Y-93459836D02*
X111085714Y-93364598D01*
X111085714Y-93364598D02*
X111085714Y-93316979D01*
X111085714Y-93316979D02*
X111038095Y-93221741D01*
X111038095Y-93221741D02*
X110942857Y-93174122D01*
X110942857Y-93174122D02*
X110800000Y-93174122D01*
X110800000Y-93174122D02*
X110704762Y-93221741D01*
X109800000Y-93174122D02*
X109800000Y-93840789D01*
X110228571Y-93174122D02*
X110228571Y-93697931D01*
X110228571Y-93697931D02*
X110180952Y-93793170D01*
X110180952Y-93793170D02*
X110085714Y-93840789D01*
X110085714Y-93840789D02*
X109942857Y-93840789D01*
X109942857Y-93840789D02*
X109847619Y-93793170D01*
X109847619Y-93793170D02*
X109800000Y-93745550D01*
X109323809Y-93174122D02*
X109323809Y-93840789D01*
X109323809Y-93269360D02*
X109276190Y-93221741D01*
X109276190Y-93221741D02*
X109180952Y-93174122D01*
X109180952Y-93174122D02*
X109038095Y-93174122D01*
X109038095Y-93174122D02*
X108942857Y-93221741D01*
X108942857Y-93221741D02*
X108895238Y-93316979D01*
X108895238Y-93316979D02*
X108895238Y-93840789D01*
X107657142Y-93174122D02*
X107657142Y-93840789D01*
X107657142Y-93269360D02*
X107609523Y-93221741D01*
X107609523Y-93221741D02*
X107514285Y-93174122D01*
X107514285Y-93174122D02*
X107371428Y-93174122D01*
X107371428Y-93174122D02*
X107276190Y-93221741D01*
X107276190Y-93221741D02*
X107228571Y-93316979D01*
X107228571Y-93316979D02*
X107228571Y-93840789D01*
X106323809Y-93840789D02*
X106323809Y-93316979D01*
X106323809Y-93316979D02*
X106371428Y-93221741D01*
X106371428Y-93221741D02*
X106466666Y-93174122D01*
X106466666Y-93174122D02*
X106657142Y-93174122D01*
X106657142Y-93174122D02*
X106752380Y-93221741D01*
X106323809Y-93793170D02*
X106419047Y-93840789D01*
X106419047Y-93840789D02*
X106657142Y-93840789D01*
X106657142Y-93840789D02*
X106752380Y-93793170D01*
X106752380Y-93793170D02*
X106799999Y-93697931D01*
X106799999Y-93697931D02*
X106799999Y-93602693D01*
X106799999Y-93602693D02*
X106752380Y-93507455D01*
X106752380Y-93507455D02*
X106657142Y-93459836D01*
X106657142Y-93459836D02*
X106419047Y-93459836D01*
X106419047Y-93459836D02*
X106323809Y-93412217D01*
X105847618Y-93174122D02*
X105847618Y-93840789D01*
X105847618Y-93269360D02*
X105799999Y-93221741D01*
X105799999Y-93221741D02*
X105704761Y-93174122D01*
X105704761Y-93174122D02*
X105561904Y-93174122D01*
X105561904Y-93174122D02*
X105466666Y-93221741D01*
X105466666Y-93221741D02*
X105419047Y-93316979D01*
X105419047Y-93316979D02*
X105419047Y-93840789D01*
X104799999Y-93840789D02*
X104895237Y-93793170D01*
X104895237Y-93793170D02*
X104942856Y-93745550D01*
X104942856Y-93745550D02*
X104990475Y-93650312D01*
X104990475Y-93650312D02*
X104990475Y-93364598D01*
X104990475Y-93364598D02*
X104942856Y-93269360D01*
X104942856Y-93269360D02*
X104895237Y-93221741D01*
X104895237Y-93221741D02*
X104799999Y-93174122D01*
X104799999Y-93174122D02*
X104657142Y-93174122D01*
X104657142Y-93174122D02*
X104561904Y-93221741D01*
X104561904Y-93221741D02*
X104514285Y-93269360D01*
X104514285Y-93269360D02*
X104466666Y-93364598D01*
X104466666Y-93364598D02*
X104466666Y-93650312D01*
X104466666Y-93650312D02*
X104514285Y-93745550D01*
X104514285Y-93745550D02*
X104561904Y-93793170D01*
X104561904Y-93793170D02*
X104657142Y-93840789D01*
X104657142Y-93840789D02*
X104799999Y-93840789D01*
X103371427Y-93174122D02*
X103133332Y-93840789D01*
X103133332Y-93840789D02*
X102895237Y-93174122D01*
X102323808Y-92840789D02*
X102228570Y-92840789D01*
X102228570Y-92840789D02*
X102133332Y-92888408D01*
X102133332Y-92888408D02*
X102085713Y-92936027D01*
X102085713Y-92936027D02*
X102038094Y-93031265D01*
X102038094Y-93031265D02*
X101990475Y-93221741D01*
X101990475Y-93221741D02*
X101990475Y-93459836D01*
X101990475Y-93459836D02*
X102038094Y-93650312D01*
X102038094Y-93650312D02*
X102085713Y-93745550D01*
X102085713Y-93745550D02*
X102133332Y-93793170D01*
X102133332Y-93793170D02*
X102228570Y-93840789D01*
X102228570Y-93840789D02*
X102323808Y-93840789D01*
X102323808Y-93840789D02*
X102419046Y-93793170D01*
X102419046Y-93793170D02*
X102466665Y-93745550D01*
X102466665Y-93745550D02*
X102514284Y-93650312D01*
X102514284Y-93650312D02*
X102561903Y-93459836D01*
X102561903Y-93459836D02*
X102561903Y-93221741D01*
X102561903Y-93221741D02*
X102514284Y-93031265D01*
X102514284Y-93031265D02*
X102466665Y-92936027D01*
X102466665Y-92936027D02*
X102419046Y-92888408D01*
X102419046Y-92888408D02*
X102323808Y-92840789D01*
D13*
X109916666Y-31924489D02*
X110249999Y-31448298D01*
X110488094Y-31924489D02*
X110488094Y-30924489D01*
X110488094Y-30924489D02*
X110107142Y-30924489D01*
X110107142Y-30924489D02*
X110011904Y-30972108D01*
X110011904Y-30972108D02*
X109964285Y-31019727D01*
X109964285Y-31019727D02*
X109916666Y-31114965D01*
X109916666Y-31114965D02*
X109916666Y-31257822D01*
X109916666Y-31257822D02*
X109964285Y-31353060D01*
X109964285Y-31353060D02*
X110011904Y-31400679D01*
X110011904Y-31400679D02*
X110107142Y-31448298D01*
X110107142Y-31448298D02*
X110488094Y-31448298D01*
X108964285Y-31924489D02*
X109535713Y-31924489D01*
X109249999Y-31924489D02*
X109249999Y-30924489D01*
X109249999Y-30924489D02*
X109345237Y-31067346D01*
X109345237Y-31067346D02*
X109440475Y-31162584D01*
X109440475Y-31162584D02*
X109535713Y-31210203D01*
X110069317Y-45079250D02*
X110116936Y-45126870D01*
X110116936Y-45126870D02*
X110259793Y-45174489D01*
X110259793Y-45174489D02*
X110355031Y-45174489D01*
X110355031Y-45174489D02*
X110497888Y-45126870D01*
X110497888Y-45126870D02*
X110593126Y-45031631D01*
X110593126Y-45031631D02*
X110640745Y-44936393D01*
X110640745Y-44936393D02*
X110688364Y-44745917D01*
X110688364Y-44745917D02*
X110688364Y-44603060D01*
X110688364Y-44603060D02*
X110640745Y-44412584D01*
X110640745Y-44412584D02*
X110593126Y-44317346D01*
X110593126Y-44317346D02*
X110497888Y-44222108D01*
X110497888Y-44222108D02*
X110355031Y-44174489D01*
X110355031Y-44174489D02*
X110259793Y-44174489D01*
X110259793Y-44174489D02*
X110116936Y-44222108D01*
X110116936Y-44222108D02*
X110069317Y-44269727D01*
X109116936Y-45174489D02*
X109688364Y-45174489D01*
X109402650Y-45174489D02*
X109402650Y-44174489D01*
X109402650Y-44174489D02*
X109497888Y-44317346D01*
X109497888Y-44317346D02*
X109593126Y-44412584D01*
X109593126Y-44412584D02*
X109688364Y-44460203D01*
D14*
X137253998Y-108707765D02*
X137206379Y-108612527D01*
X137206379Y-108612527D02*
X137206379Y-108469670D01*
X137206379Y-108469670D02*
X137253998Y-108326813D01*
X137253998Y-108326813D02*
X137349236Y-108231575D01*
X137349236Y-108231575D02*
X137444474Y-108183956D01*
X137444474Y-108183956D02*
X137634950Y-108136337D01*
X137634950Y-108136337D02*
X137777807Y-108136337D01*
X137777807Y-108136337D02*
X137968283Y-108183956D01*
X137968283Y-108183956D02*
X138063521Y-108231575D01*
X138063521Y-108231575D02*
X138158760Y-108326813D01*
X138158760Y-108326813D02*
X138206379Y-108469670D01*
X138206379Y-108469670D02*
X138206379Y-108564908D01*
X138206379Y-108564908D02*
X138158760Y-108707765D01*
X138158760Y-108707765D02*
X138111140Y-108755384D01*
X138111140Y-108755384D02*
X137777807Y-108755384D01*
X137777807Y-108755384D02*
X137777807Y-108564908D01*
X138206379Y-109183956D02*
X137206379Y-109183956D01*
X137206379Y-109183956D02*
X138206379Y-109755384D01*
X138206379Y-109755384D02*
X137206379Y-109755384D01*
X138206379Y-110231575D02*
X137206379Y-110231575D01*
X137206379Y-110231575D02*
X137206379Y-110469670D01*
X137206379Y-110469670D02*
X137253998Y-110612527D01*
X137253998Y-110612527D02*
X137349236Y-110707765D01*
X137349236Y-110707765D02*
X137444474Y-110755384D01*
X137444474Y-110755384D02*
X137634950Y-110803003D01*
X137634950Y-110803003D02*
X137777807Y-110803003D01*
X137777807Y-110803003D02*
X137968283Y-110755384D01*
X137968283Y-110755384D02*
X138063521Y-110707765D01*
X138063521Y-110707765D02*
X138158760Y-110612527D01*
X138158760Y-110612527D02*
X138206379Y-110469670D01*
X138206379Y-110469670D02*
X138206379Y-110231575D01*
X157575426Y-89183956D02*
X157575426Y-89945861D01*
X157956379Y-89564908D02*
X157194474Y-89564908D01*
X156956379Y-90898241D02*
X156956379Y-90422051D01*
X156956379Y-90422051D02*
X157432569Y-90374432D01*
X157432569Y-90374432D02*
X157384950Y-90422051D01*
X157384950Y-90422051D02*
X157337331Y-90517289D01*
X157337331Y-90517289D02*
X157337331Y-90755384D01*
X157337331Y-90755384D02*
X157384950Y-90850622D01*
X157384950Y-90850622D02*
X157432569Y-90898241D01*
X157432569Y-90898241D02*
X157527807Y-90945860D01*
X157527807Y-90945860D02*
X157765902Y-90945860D01*
X157765902Y-90945860D02*
X157861140Y-90898241D01*
X157861140Y-90898241D02*
X157908760Y-90850622D01*
X157908760Y-90850622D02*
X157956379Y-90755384D01*
X157956379Y-90755384D02*
X157956379Y-90517289D01*
X157956379Y-90517289D02*
X157908760Y-90422051D01*
X157908760Y-90422051D02*
X157861140Y-90374432D01*
X156956379Y-91231575D02*
X157956379Y-91564908D01*
X157956379Y-91564908D02*
X156956379Y-91898241D01*
X157575426Y-107457765D02*
X157575426Y-108219670D01*
X157956379Y-107838717D02*
X157194474Y-107838717D01*
X157956379Y-109219669D02*
X157956379Y-108648241D01*
X157956379Y-108933955D02*
X156956379Y-108933955D01*
X156956379Y-108933955D02*
X157099236Y-108838717D01*
X157099236Y-108838717D02*
X157194474Y-108743479D01*
X157194474Y-108743479D02*
X157242093Y-108648241D01*
X157051617Y-109600622D02*
X157003998Y-109648241D01*
X157003998Y-109648241D02*
X156956379Y-109743479D01*
X156956379Y-109743479D02*
X156956379Y-109981574D01*
X156956379Y-109981574D02*
X157003998Y-110076812D01*
X157003998Y-110076812D02*
X157051617Y-110124431D01*
X157051617Y-110124431D02*
X157146855Y-110172050D01*
X157146855Y-110172050D02*
X157242093Y-110172050D01*
X157242093Y-110172050D02*
X157384950Y-110124431D01*
X157384950Y-110124431D02*
X157956379Y-109553003D01*
X157956379Y-109553003D02*
X157956379Y-110172050D01*
X156956379Y-110457765D02*
X157956379Y-110791098D01*
X157956379Y-110791098D02*
X156956379Y-111124431D01*
X137003998Y-89707765D02*
X136956379Y-89612527D01*
X136956379Y-89612527D02*
X136956379Y-89469670D01*
X136956379Y-89469670D02*
X137003998Y-89326813D01*
X137003998Y-89326813D02*
X137099236Y-89231575D01*
X137099236Y-89231575D02*
X137194474Y-89183956D01*
X137194474Y-89183956D02*
X137384950Y-89136337D01*
X137384950Y-89136337D02*
X137527807Y-89136337D01*
X137527807Y-89136337D02*
X137718283Y-89183956D01*
X137718283Y-89183956D02*
X137813521Y-89231575D01*
X137813521Y-89231575D02*
X137908760Y-89326813D01*
X137908760Y-89326813D02*
X137956379Y-89469670D01*
X137956379Y-89469670D02*
X137956379Y-89564908D01*
X137956379Y-89564908D02*
X137908760Y-89707765D01*
X137908760Y-89707765D02*
X137861140Y-89755384D01*
X137861140Y-89755384D02*
X137527807Y-89755384D01*
X137527807Y-89755384D02*
X137527807Y-89564908D01*
X137956379Y-90183956D02*
X136956379Y-90183956D01*
X136956379Y-90183956D02*
X137956379Y-90755384D01*
X137956379Y-90755384D02*
X136956379Y-90755384D01*
X137956379Y-91231575D02*
X136956379Y-91231575D01*
X136956379Y-91231575D02*
X136956379Y-91469670D01*
X136956379Y-91469670D02*
X137003998Y-91612527D01*
X137003998Y-91612527D02*
X137099236Y-91707765D01*
X137099236Y-91707765D02*
X137194474Y-91755384D01*
X137194474Y-91755384D02*
X137384950Y-91803003D01*
X137384950Y-91803003D02*
X137527807Y-91803003D01*
X137527807Y-91803003D02*
X137718283Y-91755384D01*
X137718283Y-91755384D02*
X137813521Y-91707765D01*
X137813521Y-91707765D02*
X137908760Y-91612527D01*
X137908760Y-91612527D02*
X137956379Y-91469670D01*
X137956379Y-91469670D02*
X137956379Y-91231575D01*
D13*
X110190476Y-83424489D02*
X110666666Y-83424489D01*
X110666666Y-83424489D02*
X110714285Y-83900679D01*
X110714285Y-83900679D02*
X110666666Y-83853060D01*
X110666666Y-83853060D02*
X110571428Y-83805441D01*
X110571428Y-83805441D02*
X110333333Y-83805441D01*
X110333333Y-83805441D02*
X110238095Y-83853060D01*
X110238095Y-83853060D02*
X110190476Y-83900679D01*
X110190476Y-83900679D02*
X110142857Y-83995917D01*
X110142857Y-83995917D02*
X110142857Y-84234012D01*
X110142857Y-84234012D02*
X110190476Y-84329250D01*
X110190476Y-84329250D02*
X110238095Y-84376870D01*
X110238095Y-84376870D02*
X110333333Y-84424489D01*
X110333333Y-84424489D02*
X110571428Y-84424489D01*
X110571428Y-84424489D02*
X110666666Y-84376870D01*
X110666666Y-84376870D02*
X110714285Y-84329250D01*
X109857142Y-83424489D02*
X109523809Y-84424489D01*
X109523809Y-84424489D02*
X109190476Y-83424489D01*
X110619047Y-121924489D02*
X111190475Y-121924489D01*
X110904761Y-121924489D02*
X110904761Y-120924489D01*
X110904761Y-120924489D02*
X110999999Y-121067346D01*
X110999999Y-121067346D02*
X111095237Y-121162584D01*
X111095237Y-121162584D02*
X111190475Y-121210203D01*
X110238094Y-121019727D02*
X110190475Y-120972108D01*
X110190475Y-120972108D02*
X110095237Y-120924489D01*
X110095237Y-120924489D02*
X109857142Y-120924489D01*
X109857142Y-120924489D02*
X109761904Y-120972108D01*
X109761904Y-120972108D02*
X109714285Y-121019727D01*
X109714285Y-121019727D02*
X109666666Y-121114965D01*
X109666666Y-121114965D02*
X109666666Y-121210203D01*
X109666666Y-121210203D02*
X109714285Y-121353060D01*
X109714285Y-121353060D02*
X110285713Y-121924489D01*
X110285713Y-121924489D02*
X109666666Y-121924489D01*
X109380951Y-120924489D02*
X109047618Y-121924489D01*
X109047618Y-121924489D02*
X108714285Y-120924489D01*
X110069317Y-145079250D02*
X110116936Y-145126870D01*
X110116936Y-145126870D02*
X110259793Y-145174489D01*
X110259793Y-145174489D02*
X110355031Y-145174489D01*
X110355031Y-145174489D02*
X110497888Y-145126870D01*
X110497888Y-145126870D02*
X110593126Y-145031631D01*
X110593126Y-145031631D02*
X110640745Y-144936393D01*
X110640745Y-144936393D02*
X110688364Y-144745917D01*
X110688364Y-144745917D02*
X110688364Y-144603060D01*
X110688364Y-144603060D02*
X110640745Y-144412584D01*
X110640745Y-144412584D02*
X110593126Y-144317346D01*
X110593126Y-144317346D02*
X110497888Y-144222108D01*
X110497888Y-144222108D02*
X110355031Y-144174489D01*
X110355031Y-144174489D02*
X110259793Y-144174489D01*
X110259793Y-144174489D02*
X110116936Y-144222108D01*
X110116936Y-144222108D02*
X110069317Y-144269727D01*
X109688364Y-144269727D02*
X109640745Y-144222108D01*
X109640745Y-144222108D02*
X109545507Y-144174489D01*
X109545507Y-144174489D02*
X109307412Y-144174489D01*
X109307412Y-144174489D02*
X109212174Y-144222108D01*
X109212174Y-144222108D02*
X109164555Y-144269727D01*
X109164555Y-144269727D02*
X109116936Y-144364965D01*
X109116936Y-144364965D02*
X109116936Y-144460203D01*
X109116936Y-144460203D02*
X109164555Y-144603060D01*
X109164555Y-144603060D02*
X109735983Y-145174489D01*
X109735983Y-145174489D02*
X109116936Y-145174489D01*
X111023808Y-71924489D02*
X111023808Y-70924489D01*
X111023808Y-70924489D02*
X110785713Y-70924489D01*
X110785713Y-70924489D02*
X110642856Y-70972108D01*
X110642856Y-70972108D02*
X110547618Y-71067346D01*
X110547618Y-71067346D02*
X110499999Y-71162584D01*
X110499999Y-71162584D02*
X110452380Y-71353060D01*
X110452380Y-71353060D02*
X110452380Y-71495917D01*
X110452380Y-71495917D02*
X110499999Y-71686393D01*
X110499999Y-71686393D02*
X110547618Y-71781631D01*
X110547618Y-71781631D02*
X110642856Y-71876870D01*
X110642856Y-71876870D02*
X110785713Y-71924489D01*
X110785713Y-71924489D02*
X111023808Y-71924489D01*
X110023808Y-71924489D02*
X110023808Y-70924489D01*
X109547618Y-71924489D02*
X109547618Y-70924489D01*
X109547618Y-70924489D02*
X108976190Y-71924489D01*
X108976190Y-71924489D02*
X108976190Y-70924489D01*
X110761904Y-108472108D02*
X110857142Y-108424489D01*
X110857142Y-108424489D02*
X110999999Y-108424489D01*
X110999999Y-108424489D02*
X111142856Y-108472108D01*
X111142856Y-108472108D02*
X111238094Y-108567346D01*
X111238094Y-108567346D02*
X111285713Y-108662584D01*
X111285713Y-108662584D02*
X111333332Y-108853060D01*
X111333332Y-108853060D02*
X111333332Y-108995917D01*
X111333332Y-108995917D02*
X111285713Y-109186393D01*
X111285713Y-109186393D02*
X111238094Y-109281631D01*
X111238094Y-109281631D02*
X111142856Y-109376870D01*
X111142856Y-109376870D02*
X110999999Y-109424489D01*
X110999999Y-109424489D02*
X110904761Y-109424489D01*
X110904761Y-109424489D02*
X110761904Y-109376870D01*
X110761904Y-109376870D02*
X110714285Y-109329250D01*
X110714285Y-109329250D02*
X110714285Y-108995917D01*
X110714285Y-108995917D02*
X110904761Y-108995917D01*
X110285713Y-109424489D02*
X110285713Y-108424489D01*
X110285713Y-108424489D02*
X109714285Y-109424489D01*
X109714285Y-109424489D02*
X109714285Y-108424489D01*
X109238094Y-109424489D02*
X109238094Y-108424489D01*
X109238094Y-108424489D02*
X108999999Y-108424489D01*
X108999999Y-108424489D02*
X108857142Y-108472108D01*
X108857142Y-108472108D02*
X108761904Y-108567346D01*
X108761904Y-108567346D02*
X108714285Y-108662584D01*
X108714285Y-108662584D02*
X108666666Y-108853060D01*
X108666666Y-108853060D02*
X108666666Y-108995917D01*
X108666666Y-108995917D02*
X108714285Y-109186393D01*
X108714285Y-109186393D02*
X108761904Y-109281631D01*
X108761904Y-109281631D02*
X108857142Y-109376870D01*
X108857142Y-109376870D02*
X108999999Y-109424489D01*
X108999999Y-109424489D02*
X109238094Y-109424489D01*
D14*
X105960000Y-31219670D02*
X106730000Y-31219670D01*
X114040000Y-31219670D02*
X113270000Y-31219670D01*
X113270000Y-29849670D02*
X106730000Y-29849670D01*
X106730000Y-32589670D01*
X113270000Y-32589670D01*
X113270000Y-29849670D01*
X105822651Y-49436670D02*
X105822651Y-50502670D01*
X105862651Y-49201670D02*
X105862651Y-50737670D01*
X105902651Y-49022670D02*
X105902651Y-50916670D01*
X105942651Y-48872670D02*
X105942651Y-51066670D01*
X105982651Y-48741670D02*
X105982651Y-51197670D01*
X106022651Y-48623670D02*
X106022651Y-51315670D01*
X106062651Y-48516670D02*
X106062651Y-51422670D01*
X106102651Y-48417670D02*
X106102651Y-51521670D01*
X106142651Y-48325670D02*
X106142651Y-51613670D01*
X106182651Y-48238670D02*
X106182651Y-51700670D01*
X106222651Y-48156670D02*
X106222651Y-51782670D01*
X106262651Y-48079670D02*
X106262651Y-51859670D01*
X106302651Y-48005670D02*
X106302651Y-51933670D01*
X106342651Y-47935670D02*
X106342651Y-52003670D01*
X106382651Y-47868670D02*
X106382651Y-52070670D01*
X106422651Y-47804670D02*
X106422651Y-52134670D01*
X106462651Y-47742670D02*
X106462651Y-52196670D01*
X106502651Y-47682670D02*
X106502651Y-52256670D01*
X106542651Y-47625670D02*
X106542651Y-52313670D01*
X106582651Y-47569670D02*
X106582651Y-52369670D01*
X106622651Y-47516670D02*
X106622651Y-52422670D01*
X106662651Y-47464670D02*
X106662651Y-52474670D01*
X106702651Y-47414670D02*
X106702651Y-52524670D01*
X106742651Y-47365670D02*
X106742651Y-52573670D01*
X106782651Y-47318670D02*
X106782651Y-52620670D01*
X106822651Y-47273670D02*
X106822651Y-52665670D01*
X106862651Y-47228670D02*
X106862651Y-52710670D01*
X106902651Y-47185670D02*
X106902651Y-52753670D01*
X106942651Y-47143670D02*
X106942651Y-52795670D01*
X106982651Y-47102670D02*
X106982651Y-48929670D01*
X106982651Y-51009670D02*
X106982651Y-52836670D01*
X107022651Y-47063670D02*
X107022651Y-48929670D01*
X107022651Y-51009670D02*
X107022651Y-52875670D01*
X107062651Y-47024670D02*
X107062651Y-48929670D01*
X107062651Y-51009670D02*
X107062651Y-52914670D01*
X107102651Y-46987670D02*
X107102651Y-48929670D01*
X107102651Y-51009670D02*
X107102651Y-52951670D01*
X107142651Y-46950670D02*
X107142651Y-48929670D01*
X107142651Y-51009670D02*
X107142651Y-52988670D01*
X107182651Y-46914670D02*
X107182651Y-48929670D01*
X107182651Y-51009670D02*
X107182651Y-53024670D01*
X107222651Y-46880670D02*
X107222651Y-48929670D01*
X107222651Y-51009670D02*
X107222651Y-53058670D01*
X107262651Y-46846670D02*
X107262651Y-48929670D01*
X107262651Y-51009670D02*
X107262651Y-53092670D01*
X107302651Y-46813670D02*
X107302651Y-48929670D01*
X107302651Y-51009670D02*
X107302651Y-53125670D01*
X107342651Y-46781670D02*
X107342651Y-48929670D01*
X107342651Y-51009670D02*
X107342651Y-53157670D01*
X107382651Y-46750670D02*
X107382651Y-48929670D01*
X107382651Y-51009670D02*
X107382651Y-53188670D01*
X107422651Y-46719670D02*
X107422651Y-48929670D01*
X107422651Y-51009670D02*
X107422651Y-53219670D01*
X107462651Y-46689670D02*
X107462651Y-48929670D01*
X107462651Y-51009670D02*
X107462651Y-53249670D01*
X107502651Y-46660670D02*
X107502651Y-48929670D01*
X107502651Y-51009670D02*
X107502651Y-53278670D01*
X107542651Y-46632670D02*
X107542651Y-48929670D01*
X107542651Y-51009670D02*
X107542651Y-53306670D01*
X107582651Y-46604670D02*
X107582651Y-48929670D01*
X107582651Y-51009670D02*
X107582651Y-53334670D01*
X107622651Y-46577670D02*
X107622651Y-48929670D01*
X107622651Y-51009670D02*
X107622651Y-53361670D01*
X107662651Y-46551670D02*
X107662651Y-48929670D01*
X107662651Y-51009670D02*
X107662651Y-53387670D01*
X107702651Y-46526670D02*
X107702651Y-48929670D01*
X107702651Y-51009670D02*
X107702651Y-53412670D01*
X107742651Y-46501670D02*
X107742651Y-48929670D01*
X107742651Y-51009670D02*
X107742651Y-53437670D01*
X107782651Y-46476670D02*
X107782651Y-48929670D01*
X107782651Y-51009670D02*
X107782651Y-53462670D01*
X107822651Y-46453670D02*
X107822651Y-48929670D01*
X107822651Y-51009670D02*
X107822651Y-53485670D01*
X107862651Y-46430670D02*
X107862651Y-48929670D01*
X107862651Y-51009670D02*
X107862651Y-53508670D01*
X107902651Y-46407670D02*
X107902651Y-48929670D01*
X107902651Y-51009670D02*
X107902651Y-53531670D01*
X107942651Y-46385670D02*
X107942651Y-48929670D01*
X107942651Y-51009670D02*
X107942651Y-53553670D01*
X107982651Y-46364670D02*
X107982651Y-48929670D01*
X107982651Y-51009670D02*
X107982651Y-53574670D01*
X108022651Y-46343670D02*
X108022651Y-48929670D01*
X108022651Y-51009670D02*
X108022651Y-53595670D01*
X108062651Y-46323670D02*
X108062651Y-48929670D01*
X108062651Y-51009670D02*
X108062651Y-53615670D01*
X108102651Y-46303670D02*
X108102651Y-48929670D01*
X108102651Y-51009670D02*
X108102651Y-53635670D01*
X108142651Y-46284670D02*
X108142651Y-48929670D01*
X108142651Y-51009670D02*
X108142651Y-53654670D01*
X108182651Y-46265670D02*
X108182651Y-48929670D01*
X108182651Y-51009670D02*
X108182651Y-53673670D01*
X108222651Y-46247670D02*
X108222651Y-48929670D01*
X108222651Y-51009670D02*
X108222651Y-53691670D01*
X108262651Y-46229670D02*
X108262651Y-48929670D01*
X108262651Y-51009670D02*
X108262651Y-53709670D01*
X108302651Y-46212670D02*
X108302651Y-48929670D01*
X108302651Y-51009670D02*
X108302651Y-53726670D01*
X108342651Y-46196670D02*
X108342651Y-48929670D01*
X108342651Y-51009670D02*
X108342651Y-53742670D01*
X108382651Y-46180670D02*
X108382651Y-48929670D01*
X108382651Y-51009670D02*
X108382651Y-53758670D01*
X108422651Y-46164670D02*
X108422651Y-48929670D01*
X108422651Y-51009670D02*
X108422651Y-53774670D01*
X108462651Y-46149670D02*
X108462651Y-48929670D01*
X108462651Y-51009670D02*
X108462651Y-53789670D01*
X108502651Y-46134670D02*
X108502651Y-48929670D01*
X108502651Y-51009670D02*
X108502651Y-53804670D01*
X108542651Y-46120670D02*
X108542651Y-48929670D01*
X108542651Y-51009670D02*
X108542651Y-53818670D01*
X108582651Y-46106670D02*
X108582651Y-48929670D01*
X108582651Y-51009670D02*
X108582651Y-53832670D01*
X108622651Y-46093670D02*
X108622651Y-48929670D01*
X108622651Y-51009670D02*
X108622651Y-53845670D01*
X108662651Y-46080670D02*
X108662651Y-48929670D01*
X108662651Y-51009670D02*
X108662651Y-53858670D01*
X108702651Y-46068670D02*
X108702651Y-48929670D01*
X108702651Y-51009670D02*
X108702651Y-53870670D01*
X108742651Y-46056670D02*
X108742651Y-48929670D01*
X108742651Y-51009670D02*
X108742651Y-53882670D01*
X108782651Y-46044670D02*
X108782651Y-48929670D01*
X108782651Y-51009670D02*
X108782651Y-53894670D01*
X108822651Y-46033670D02*
X108822651Y-48929670D01*
X108822651Y-51009670D02*
X108822651Y-53905670D01*
X108862651Y-46022670D02*
X108862651Y-48929670D01*
X108862651Y-51009670D02*
X108862651Y-53916670D01*
X108902651Y-46012670D02*
X108902651Y-48929670D01*
X108902651Y-51009670D02*
X108902651Y-53926670D01*
X108942651Y-46002670D02*
X108942651Y-48929670D01*
X108942651Y-51009670D02*
X108942651Y-53936670D01*
X108982651Y-45993670D02*
X108982651Y-48929670D01*
X108982651Y-51009670D02*
X108982651Y-53945670D01*
X109022651Y-45984670D02*
X109022651Y-48929670D01*
X109022651Y-51009670D02*
X109022651Y-53954670D01*
X109062651Y-45976670D02*
X109062651Y-53962670D01*
X109102651Y-45967670D02*
X109102651Y-53971670D01*
X109142651Y-45960670D02*
X109142651Y-53978670D01*
X109182651Y-45952670D02*
X109182651Y-53986670D01*
X109222651Y-45946670D02*
X109222651Y-53992670D01*
X109262651Y-45939670D02*
X109262651Y-53999670D01*
X109302651Y-45933670D02*
X109302651Y-54005670D01*
X109342651Y-45927670D02*
X109342651Y-54011670D01*
X109382651Y-45922670D02*
X109382651Y-54016670D01*
X109422651Y-45917670D02*
X109422651Y-54021670D01*
X109462651Y-45913670D02*
X109462651Y-54025670D01*
X109502651Y-45908670D02*
X109502651Y-54030670D01*
X109542651Y-45905670D02*
X109542651Y-54033670D01*
X109582651Y-45901670D02*
X109582651Y-54037670D01*
X109622651Y-45899670D02*
X109622651Y-54039670D01*
X109662651Y-45896670D02*
X109662651Y-54042670D01*
X109702651Y-45894670D02*
X109702651Y-54044670D01*
X109742651Y-45892670D02*
X109742651Y-54046670D01*
X109782651Y-45891670D02*
X109782651Y-54047670D01*
X109822651Y-45890670D02*
X109822651Y-54048670D01*
X109862651Y-45889670D02*
X109862651Y-54049670D01*
X109902651Y-45889670D02*
X109902651Y-54049670D01*
X113912349Y-47254670D02*
X113912349Y-48054670D01*
X114312349Y-47654670D02*
X113512349Y-47654670D01*
X114022651Y-49969670D02*
G75*
G02*
X105782651Y-49969670I-4120000J0D01*
G01*
X105782651Y-49969670D02*
G75*
G02*
X114022651Y-49969670I4120000J0D01*
G01*
X139000000Y-88969670D02*
X156000000Y-88969670D01*
X139000000Y-110969670D02*
X139000000Y-88969670D01*
X156000000Y-88969670D02*
X156000000Y-110969670D01*
X156000000Y-110969670D02*
X139000000Y-110969670D01*
X107800000Y-85269670D02*
X112200000Y-85269670D01*
X107800000Y-89669670D02*
X107800000Y-85269670D01*
X112200000Y-85269670D02*
X112200000Y-89669670D01*
X112200000Y-89669670D02*
X107800000Y-89669670D01*
X107800000Y-122769670D02*
X112200000Y-122769670D01*
X107800000Y-127169670D02*
X107800000Y-122769670D01*
X112200000Y-122769670D02*
X112200000Y-127169670D01*
X112200000Y-127169670D02*
X107800000Y-127169670D01*
X105822651Y-149436670D02*
X105822651Y-150502670D01*
X105862651Y-149201670D02*
X105862651Y-150737670D01*
X105902651Y-149022670D02*
X105902651Y-150916670D01*
X105942651Y-148872670D02*
X105942651Y-151066670D01*
X105982651Y-148741670D02*
X105982651Y-151197670D01*
X106022651Y-148623670D02*
X106022651Y-151315670D01*
X106062651Y-148516670D02*
X106062651Y-151422670D01*
X106102651Y-148417670D02*
X106102651Y-151521670D01*
X106142651Y-148325670D02*
X106142651Y-151613670D01*
X106182651Y-148238670D02*
X106182651Y-151700670D01*
X106222651Y-148156670D02*
X106222651Y-151782670D01*
X106262651Y-148079670D02*
X106262651Y-151859670D01*
X106302651Y-148005670D02*
X106302651Y-151933670D01*
X106342651Y-147935670D02*
X106342651Y-152003670D01*
X106382651Y-147868670D02*
X106382651Y-152070670D01*
X106422651Y-147804670D02*
X106422651Y-152134670D01*
X106462651Y-147742670D02*
X106462651Y-152196670D01*
X106502651Y-147682670D02*
X106502651Y-152256670D01*
X106542651Y-147625670D02*
X106542651Y-152313670D01*
X106582651Y-147569670D02*
X106582651Y-152369670D01*
X106622651Y-147516670D02*
X106622651Y-152422670D01*
X106662651Y-147464670D02*
X106662651Y-152474670D01*
X106702651Y-147414670D02*
X106702651Y-152524670D01*
X106742651Y-147365670D02*
X106742651Y-152573670D01*
X106782651Y-147318670D02*
X106782651Y-152620670D01*
X106822651Y-147273670D02*
X106822651Y-152665670D01*
X106862651Y-147228670D02*
X106862651Y-152710670D01*
X106902651Y-147185670D02*
X106902651Y-152753670D01*
X106942651Y-147143670D02*
X106942651Y-152795670D01*
X106982651Y-147102670D02*
X106982651Y-148929670D01*
X106982651Y-151009670D02*
X106982651Y-152836670D01*
X107022651Y-147063670D02*
X107022651Y-148929670D01*
X107022651Y-151009670D02*
X107022651Y-152875670D01*
X107062651Y-147024670D02*
X107062651Y-148929670D01*
X107062651Y-151009670D02*
X107062651Y-152914670D01*
X107102651Y-146987670D02*
X107102651Y-148929670D01*
X107102651Y-151009670D02*
X107102651Y-152951670D01*
X107142651Y-146950670D02*
X107142651Y-148929670D01*
X107142651Y-151009670D02*
X107142651Y-152988670D01*
X107182651Y-146914670D02*
X107182651Y-148929670D01*
X107182651Y-151009670D02*
X107182651Y-153024670D01*
X107222651Y-146880670D02*
X107222651Y-148929670D01*
X107222651Y-151009670D02*
X107222651Y-153058670D01*
X107262651Y-146846670D02*
X107262651Y-148929670D01*
X107262651Y-151009670D02*
X107262651Y-153092670D01*
X107302651Y-146813670D02*
X107302651Y-148929670D01*
X107302651Y-151009670D02*
X107302651Y-153125670D01*
X107342651Y-146781670D02*
X107342651Y-148929670D01*
X107342651Y-151009670D02*
X107342651Y-153157670D01*
X107382651Y-146750670D02*
X107382651Y-148929670D01*
X107382651Y-151009670D02*
X107382651Y-153188670D01*
X107422651Y-146719670D02*
X107422651Y-148929670D01*
X107422651Y-151009670D02*
X107422651Y-153219670D01*
X107462651Y-146689670D02*
X107462651Y-148929670D01*
X107462651Y-151009670D02*
X107462651Y-153249670D01*
X107502651Y-146660670D02*
X107502651Y-148929670D01*
X107502651Y-151009670D02*
X107502651Y-153278670D01*
X107542651Y-146632670D02*
X107542651Y-148929670D01*
X107542651Y-151009670D02*
X107542651Y-153306670D01*
X107582651Y-146604670D02*
X107582651Y-148929670D01*
X107582651Y-151009670D02*
X107582651Y-153334670D01*
X107622651Y-146577670D02*
X107622651Y-148929670D01*
X107622651Y-151009670D02*
X107622651Y-153361670D01*
X107662651Y-146551670D02*
X107662651Y-148929670D01*
X107662651Y-151009670D02*
X107662651Y-153387670D01*
X107702651Y-146526670D02*
X107702651Y-148929670D01*
X107702651Y-151009670D02*
X107702651Y-153412670D01*
X107742651Y-146501670D02*
X107742651Y-148929670D01*
X107742651Y-151009670D02*
X107742651Y-153437670D01*
X107782651Y-146476670D02*
X107782651Y-148929670D01*
X107782651Y-151009670D02*
X107782651Y-153462670D01*
X107822651Y-146453670D02*
X107822651Y-148929670D01*
X107822651Y-151009670D02*
X107822651Y-153485670D01*
X107862651Y-146430670D02*
X107862651Y-148929670D01*
X107862651Y-151009670D02*
X107862651Y-153508670D01*
X107902651Y-146407670D02*
X107902651Y-148929670D01*
X107902651Y-151009670D02*
X107902651Y-153531670D01*
X107942651Y-146385670D02*
X107942651Y-148929670D01*
X107942651Y-151009670D02*
X107942651Y-153553670D01*
X107982651Y-146364670D02*
X107982651Y-148929670D01*
X107982651Y-151009670D02*
X107982651Y-153574670D01*
X108022651Y-146343670D02*
X108022651Y-148929670D01*
X108022651Y-151009670D02*
X108022651Y-153595670D01*
X108062651Y-146323670D02*
X108062651Y-148929670D01*
X108062651Y-151009670D02*
X108062651Y-153615670D01*
X108102651Y-146303670D02*
X108102651Y-148929670D01*
X108102651Y-151009670D02*
X108102651Y-153635670D01*
X108142651Y-146284670D02*
X108142651Y-148929670D01*
X108142651Y-151009670D02*
X108142651Y-153654670D01*
X108182651Y-146265670D02*
X108182651Y-148929670D01*
X108182651Y-151009670D02*
X108182651Y-153673670D01*
X108222651Y-146247670D02*
X108222651Y-148929670D01*
X108222651Y-151009670D02*
X108222651Y-153691670D01*
X108262651Y-146229670D02*
X108262651Y-148929670D01*
X108262651Y-151009670D02*
X108262651Y-153709670D01*
X108302651Y-146212670D02*
X108302651Y-148929670D01*
X108302651Y-151009670D02*
X108302651Y-153726670D01*
X108342651Y-146196670D02*
X108342651Y-148929670D01*
X108342651Y-151009670D02*
X108342651Y-153742670D01*
X108382651Y-146180670D02*
X108382651Y-148929670D01*
X108382651Y-151009670D02*
X108382651Y-153758670D01*
X108422651Y-146164670D02*
X108422651Y-148929670D01*
X108422651Y-151009670D02*
X108422651Y-153774670D01*
X108462651Y-146149670D02*
X108462651Y-148929670D01*
X108462651Y-151009670D02*
X108462651Y-153789670D01*
X108502651Y-146134670D02*
X108502651Y-148929670D01*
X108502651Y-151009670D02*
X108502651Y-153804670D01*
X108542651Y-146120670D02*
X108542651Y-148929670D01*
X108542651Y-151009670D02*
X108542651Y-153818670D01*
X108582651Y-146106670D02*
X108582651Y-148929670D01*
X108582651Y-151009670D02*
X108582651Y-153832670D01*
X108622651Y-146093670D02*
X108622651Y-148929670D01*
X108622651Y-151009670D02*
X108622651Y-153845670D01*
X108662651Y-146080670D02*
X108662651Y-148929670D01*
X108662651Y-151009670D02*
X108662651Y-153858670D01*
X108702651Y-146068670D02*
X108702651Y-148929670D01*
X108702651Y-151009670D02*
X108702651Y-153870670D01*
X108742651Y-146056670D02*
X108742651Y-148929670D01*
X108742651Y-151009670D02*
X108742651Y-153882670D01*
X108782651Y-146044670D02*
X108782651Y-148929670D01*
X108782651Y-151009670D02*
X108782651Y-153894670D01*
X108822651Y-146033670D02*
X108822651Y-148929670D01*
X108822651Y-151009670D02*
X108822651Y-153905670D01*
X108862651Y-146022670D02*
X108862651Y-148929670D01*
X108862651Y-151009670D02*
X108862651Y-153916670D01*
X108902651Y-146012670D02*
X108902651Y-148929670D01*
X108902651Y-151009670D02*
X108902651Y-153926670D01*
X108942651Y-146002670D02*
X108942651Y-148929670D01*
X108942651Y-151009670D02*
X108942651Y-153936670D01*
X108982651Y-145993670D02*
X108982651Y-148929670D01*
X108982651Y-151009670D02*
X108982651Y-153945670D01*
X109022651Y-145984670D02*
X109022651Y-148929670D01*
X109022651Y-151009670D02*
X109022651Y-153954670D01*
X109062651Y-145976670D02*
X109062651Y-153962670D01*
X109102651Y-145967670D02*
X109102651Y-153971670D01*
X109142651Y-145960670D02*
X109142651Y-153978670D01*
X109182651Y-145952670D02*
X109182651Y-153986670D01*
X109222651Y-145946670D02*
X109222651Y-153992670D01*
X109262651Y-145939670D02*
X109262651Y-153999670D01*
X109302651Y-145933670D02*
X109302651Y-154005670D01*
X109342651Y-145927670D02*
X109342651Y-154011670D01*
X109382651Y-145922670D02*
X109382651Y-154016670D01*
X109422651Y-145917670D02*
X109422651Y-154021670D01*
X109462651Y-145913670D02*
X109462651Y-154025670D01*
X109502651Y-145908670D02*
X109502651Y-154030670D01*
X109542651Y-145905670D02*
X109542651Y-154033670D01*
X109582651Y-145901670D02*
X109582651Y-154037670D01*
X109622651Y-145899670D02*
X109622651Y-154039670D01*
X109662651Y-145896670D02*
X109662651Y-154042670D01*
X109702651Y-145894670D02*
X109702651Y-154044670D01*
X109742651Y-145892670D02*
X109742651Y-154046670D01*
X109782651Y-145891670D02*
X109782651Y-154047670D01*
X109822651Y-145890670D02*
X109822651Y-154048670D01*
X109862651Y-145889670D02*
X109862651Y-154049670D01*
X109902651Y-145889670D02*
X109902651Y-154049670D01*
X113912349Y-147254670D02*
X113912349Y-148054670D01*
X114312349Y-147654670D02*
X113512349Y-147654670D01*
X114022651Y-149969670D02*
G75*
G02*
X105782651Y-149969670I-4120000J0D01*
G01*
X105782651Y-149969670D02*
G75*
G02*
X114022651Y-149969670I4120000J0D01*
G01*
X107800000Y-72769670D02*
X112200000Y-72769670D01*
X107800000Y-77169670D02*
X107800000Y-72769670D01*
X112200000Y-72769670D02*
X112200000Y-77169670D01*
X112200000Y-77169670D02*
X107800000Y-77169670D01*
X107800000Y-110269670D02*
X112200000Y-110269670D01*
X107800000Y-114669670D02*
X107800000Y-110269670D01*
X112200000Y-110269670D02*
X112200000Y-114669670D01*
X112200000Y-114669670D02*
X107800000Y-114669670D01*
%LPC*%
D15*
X68500000Y-70969670D03*
X91500000Y-128969670D03*
D16*
X59000000Y-159969670D03*
X110000000Y-22469670D03*
X161000000Y-39969670D03*
D15*
X68500000Y-128969670D03*
D16*
X110000000Y-177469670D03*
X59000000Y-39969670D03*
X161000000Y-159969670D03*
D15*
X91500000Y-70969670D03*
D17*
X115080000Y-31219670D03*
X104920000Y-31219670D03*
D18*
X111802651Y-49969670D03*
D17*
X108002651Y-49969670D03*
D19*
X153500000Y-109469670D03*
X141500000Y-109469670D03*
X141500000Y-90469670D03*
X153500000Y-90469670D03*
D20*
X110000000Y-87469670D03*
X110000000Y-124969670D03*
D18*
X111802651Y-149969670D03*
D17*
X108002651Y-149969670D03*
D20*
X110000000Y-74969670D03*
X110000000Y-112469670D03*
%LPD*%
M02*
