G04 #@! TF.GenerationSoftware,KiCad,Pcbnew,9.0.7*
G04 #@! TF.CreationDate,2026-04-12T15:48:31+03:00*
G04 #@! TF.ProjectId,nanosun-pcb,6e616e6f-7375-46e2-9d70-63622e6b6963,v1*
G04 #@! TF.SameCoordinates,Original*
G04 #@! TF.FileFunction,Copper,L2,Bot*
G04 #@! TF.FilePolarity,Positive*
%FSLAX46Y46*%
G04 Gerber Fmt 4.6, Leading zero omitted, Abs format (unit mm)*
G04 Created by KiCad (PCBNEW 9.0.7) date 2026-04-12 15:48:31*
%MOMM*%
%LPD*%
G01*
G04 APERTURE LIST*
G04 Aperture macros list*
%AMRoundRect*
0 Rectangle with rounded corners*
0 $1 Rounding radius*
0 $2 $3 $4 $5 $6 $7 $8 $9 X,Y pos of 4 corners*
0 Add a 4 corners polygon primitive as box body*
4,1,4,$2,$3,$4,$5,$6,$7,$8,$9,$2,$3,0*
0 Add four circle primitives for the rounded corners*
1,1,$1+$1,$2,$3*
1,1,$1+$1,$4,$5*
1,1,$1+$1,$6,$7*
1,1,$1+$1,$8,$9*
0 Add four rect primitives between the rounded corners*
20,1,$1+$1,$2,$3,$4,$5,0*
20,1,$1+$1,$4,$5,$6,$7,0*
20,1,$1+$1,$6,$7,$8,$9,0*
20,1,$1+$1,$8,$9,$2,$3,0*%
G04 Aperture macros list end*
G04 #@! TA.AperFunction,ComponentPad*
%ADD10C,1.600000*%
G04 #@! TD*
G04 #@! TA.AperFunction,ComponentPad*
%ADD11RoundRect,0.250000X0.550000X0.550000X-0.550000X0.550000X-0.550000X-0.550000X0.550000X-0.550000X0*%
G04 #@! TD*
G04 #@! TA.AperFunction,SMDPad,CuDef*
%ADD12R,5.000000X3.000000*%
G04 #@! TD*
G04 #@! TA.AperFunction,SMDPad,CuDef*
%ADD13R,4.000000X4.000000*%
G04 #@! TD*
G04 #@! TA.AperFunction,Conductor*
%ADD14C,1.000000*%
G04 #@! TD*
G04 #@! TA.AperFunction,Conductor*
%ADD15C,0.200000*%
G04 #@! TD*
G04 APERTURE END LIST*
D10*
X115080000Y-31219670D03*
X104920000Y-31219670D03*
D11*
X111802651Y-49969670D03*
D10*
X108002651Y-49969670D03*
D12*
X153500000Y-109469670D03*
X141500000Y-109469670D03*
X141500000Y-90469670D03*
X153500000Y-90469670D03*
D13*
X110000000Y-87469670D03*
X110000000Y-124969670D03*
D11*
X111802651Y-149969670D03*
D10*
X108002651Y-149969670D03*
D13*
X110000000Y-74969670D03*
X110000000Y-112469670D03*
D14*
X138500000Y-112469670D02*
X110000000Y-112469670D01*
X105001326Y-117468344D02*
X105001326Y-146968344D01*
X141500000Y-90469670D02*
X141500000Y-109469670D01*
X110000000Y-112469670D02*
X105001326Y-117468344D01*
X108002651Y-49969670D02*
X108000000Y-49969670D01*
X108002651Y-149969670D02*
X108000000Y-149969670D01*
X141500000Y-109469670D02*
X138500000Y-112469670D01*
X108000000Y-149969670D02*
X105001326Y-146970996D01*
X115000000Y-146772321D02*
X115000000Y-129719670D01*
X153500000Y-111469670D02*
X146250000Y-118719670D01*
X111802651Y-149969670D02*
X115000000Y-146772321D01*
X115000000Y-129719670D02*
X110250000Y-124969670D01*
X153500000Y-109469670D02*
X153500000Y-111469670D01*
X146250000Y-118719670D02*
X116250000Y-118719670D01*
X110250000Y-124969670D02*
X110000000Y-124969670D01*
X116250000Y-118719670D02*
X110000000Y-124969670D01*
X115000000Y-69969670D02*
X110000000Y-74969670D01*
D15*
X115080000Y-31219670D02*
X115000000Y-31299670D01*
D14*
X115000000Y-31299670D02*
X115000000Y-69969670D01*
X150500000Y-87469670D02*
X153500000Y-90469670D01*
X110000000Y-87469670D02*
X150500000Y-87469670D01*
M02*
